<?xml version="1.0" standalone="no"?>
<!DOCTYPE svg PUBLIC "-//W3C//DTD SVG 20010904//EN"
 "http://www.w3.org/TR/2001/REC-SVG-20010904/DTD/svg10.dtd">
<svg version="1.0" xmlns="http://www.w3.org/2000/svg"
 width="612.174640pt" height="548.067256pt" viewBox="0 0 612.174640 548.067256"
 preserveAspectRatio="xMidYMid meet">
<metadata>
Created by potrace 1.16, written by Peter Selinger 2001-2019
</metadata>
<g transform="translate(-6.918975,554.339071) scale(0.100000,-0.100000)"
fill="#ffffff" stroke="none">
<path d="M2491 5539 c-180 -13 -307 -40 -416 -89 -22 -10 -53 -21 -68 -25 -69
-15 -279 -120 -340 -169 -120 -98 -315 -314 -393 -438 -17 -27 -40 -59 -50
-71 -51 -59 -154 -229 -249 -412 -37 -71 -76 -141 -86 -154 -11 -13 -19 -28
-19 -34 0 -5 -13 -31 -29 -56 -16 -26 -36 -74 -46 -107 -9 -32 -30 -84 -46
-114 -16 -30 -29 -60 -29 -67 0 -7 -22 -85 -48 -175 -56 -187 -72 -262 -72
-339 -1 -30 -5 -74 -10 -99 -5 -27 -5 -62 1 -89 12 -53 5 -63 -70 -97 -31 -14
-66 -30 -77 -36 -36 -17 -148 -131 -188 -192 -53 -81 -96 -202 -96 -275 0 -50
4 -63 25 -82 33 -32 31 -39 -7 -33 -57 9 -86 -26 -99 -116 -13 -92 -13 -296
-1 -347 5 -21 15 -72 21 -113 18 -113 40 -193 62 -226 10 -16 19 -42 19 -59 0
-16 9 -48 20 -70 11 -22 19 -45 20 -51 0 -6 6 -17 14 -23 8 -7 18 -30 21 -53
17 -101 117 -250 175 -261 18 -4 35 -17 44 -34 33 -64 104 -104 248 -139 55
-13 123 -24 152 -24 53 0 53 0 65 -42 18 -59 62 -116 183 -235 94 -93 161
-150 209 -179 11 -6 27 -17 36 -26 24 -19 159 -98 170 -98 4 0 46 -18 93 -39
124 -57 294 -115 374 -127 16 -2 46 -9 65 -15 20 -6 77 -15 126 -21 50 -5 99
-11 110 -12 63 -9 275 -17 285 -11 23 14 -13 34 -123 69 -62 20 -146 44 -187
55 -242 63 -504 160 -587 217 -21 14 -69 41 -106 60 -120 61 -232 149 -382
302 -45 45 -57 66 -84 146 -17 51 -31 103 -31 114 0 11 -5 24 -10 27 -8 5 -8
11 -1 19 7 9 8 29 2 60 -11 60 4 57 38 -9 14 -27 31 -54 36 -61 21 -25 66 -81
105 -129 94 -117 239 -209 300 -190 26 8 43 41 42 82 -1 31 -42 182 -62 228
-4 11 -15 47 -23 80 -9 33 -31 119 -50 190 -31 113 -56 236 -88 420 -9 54 -30
235 -34 300 -2 22 -8 89 -14 149 -14 131 -15 326 -2 421 5 39 15 107 21 152
10 71 10 84 -5 106 -22 34 -69 40 -122 16 -55 -26 -68 -57 -90 -214 -20 -149
-21 -195 -3 -310 13 -83 13 -83 -14 -107 -24 -20 -29 -35 -37 -103 -5 -44 -7
-105 -4 -135 2 -30 7 -100 10 -155 9 -137 53 -278 99 -320 12 -10 87 -315 86
-350 0 -25 -92 146 -114 213 -9 27 -25 57 -34 65 -27 24 -68 37 -80 25 -11
-11 -20 86 -27 327 -3 83 -8 191 -12 240 -19 222 -7 380 42 550 104 367 282
660 583 962 23 23 55 50 70 58 15 9 54 33 87 55 33 22 69 45 80 51 19 11 19
11 3 -7 -25 -29 -123 -231 -143 -294 -9 -30 -23 -68 -30 -85 -7 -16 -16 -46
-19 -65 -4 -19 -14 -54 -23 -77 -16 -43 -16 -43 -69 -43 -50 0 -54 -2 -93 -47
-99 -116 -112 -264 -35 -416 45 -89 127 -130 182 -91 26 18 52 12 52 -11 0
-29 58 -131 82 -142 49 -25 86 -20 127 17 32 30 33 33 28 93 -3 34 -13 87 -22
117 -28 93 -37 386 -14 456 5 17 12 42 14 55 25 138 75 261 134 327 38 44 38
44 69 -50 67 -202 131 -296 269 -394 68 -49 114 -58 154 -31 13 10 31 17 41
17 27 0 51 56 45 104 -10 70 -36 180 -51 211 -42 90 -91 249 -81 265 6 9 431
3 584 -8 78 -6 86 -9 98 -32 41 -83 95 -205 118 -265 14 -38 35 -88 46 -110
11 -23 22 -58 26 -80 3 -21 17 -68 31 -104 13 -36 26 -84 29 -106 2 -22 12
-56 22 -75 10 -19 24 -64 31 -100 23 -117 71 -190 124 -190 12 0 43 13 69 30
46 29 47 30 47 82 0 36 -14 90 -41 168 -23 63 -51 149 -64 190 -42 135 -85
243 -141 355 -31 61 -69 145 -85 189 -26 72 -27 77 -8 60 41 -37 88 -111 130
-204 24 -52 59 -120 78 -150 19 -30 98 -179 174 -330 77 -151 157 -305 179
-342 22 -37 46 -88 54 -114 14 -46 14 -46 -30 -88 -48 -47 -69 -98 -86 -208
-12 -80 0 -240 24 -306 42 -118 132 -158 201 -89 52 52 68 141 44 247 -5 25
-14 79 -19 120 -5 41 -12 89 -15 105 -7 30 -7 30 13 -1 41 -64 93 -81 129 -41
35 38 34 44 -2 149 -31 89 -64 156 -166 338 -11 19 -56 107 -101 195 -44 88
-89 172 -100 188 -26 37 -258 503 -258 519 0 7 7 3 15 -10 9 -12 36 -35 60
-52 25 -17 72 -63 105 -103 34 -40 71 -83 82 -97 12 -14 57 -71 100 -128 42
-57 91 -117 107 -135 141 -151 244 -312 301 -469 24 -64 54 -108 76 -108 31 0
76 33 89 65 24 57 -18 233 -119 500 -15 39 -38 111 -52 160 -32 112 -50 174
-59 200 -21 56 61 -64 112 -165 32 -63 67 -131 78 -150 25 -44 111 -229 137
-295 42 -109 128 -377 128 -402 0 -10 9 -38 20 -61 11 -22 20 -49 20 -58 0
-31 39 -100 64 -113 49 -27 118 12 128 72 10 55 -35 241 -99 407 -14 36 -42
112 -63 170 -54 149 -265 559 -327 634 -13 16 -35 50 -49 75 -14 25 -45 73
-69 106 -24 33 -57 79 -72 102 -19 28 -43 49 -75 62 -59 26 -79 26 -112 0 -26
-21 -26 -21 -21 -157 5 -145 29 -252 80 -369 14 -30 25 -60 25 -66 0 -18 -57
46 -107 119 -25 38 -83 113 -127 167 -45 54 -112 137 -149 185 -156 200 -163
207 -231 231 -47 17 -68 20 -88 12 -39 -15 -41 -30 -22 -145 6 -39 6 -39 -30
-11 -20 16 -41 36 -46 45 -11 21 -174 160 -187 160 -6 0 -18 10 -29 21 -10 12
-38 35 -61 51 -24 16 -43 33 -43 38 0 14 417 3 540 -14 138 -19 320 -61 377
-86 25 -11 53 -20 63 -20 20 0 249 -89 312 -121 45 -23 176 -114 292 -202 104
-80 324 -336 404 -472 23 -38 64 -93 91 -121 28 -29 53 -65 57 -80 4 -16 16
-45 27 -64 67 -118 69 -125 50 -128 -59 -11 -56 -88 8 -270 11 -30 19 -73 19
-95 0 -23 9 -66 20 -95 16 -41 18 -58 10 -73 -8 -14 -8 -30 -1 -52 13 -41 13
-362 0 -487 -5 -52 -13 -133 -18 -180 -5 -47 -18 -112 -29 -145 -11 -33 -23
-71 -26 -85 -3 -14 -21 -47 -40 -75 -20 -27 -61 -88 -92 -135 -126 -188 -206
-274 -404 -431 -67 -54 -248 -173 -305 -201 -27 -14 -84 -43 -125 -64 -72 -37
-122 -60 -255 -117 -33 -14 -101 -36 -150 -48 -222 -53 -355 -98 -396 -132
-16 -14 -17 -21 -9 -37 14 -26 40 -32 152 -34 152 -2 328 34 588 121 53 18
231 92 245 103 6 4 49 28 97 53 266 138 645 508 739 723 21 46 22 47 104 44
78 -2 215 34 307 82 138 72 316 305 359 473 69 266 84 431 58 655 -21 175 -72
358 -134 480 -19 36 -52 105 -74 154 -105 230 -317 430 -441 416 -25 -3 -53
-4 -63 -1 -19 4 -69 103 -92 181 -33 111 -150 347 -250 501 -139 214 -177 265
-287 383 -51 55 -102 111 -113 125 -45 58 -340 342 -396 383 -33 24 -77 56
-97 71 -20 16 -52 35 -71 43 -19 8 -53 30 -75 50 -53 47 -125 88 -261 148 -60
27 -146 67 -190 88 -53 26 -97 39 -130 41 -30 2 -64 12 -85 25 -19 12 -46 22
-60 22 -14 0 -81 18 -150 40 -69 22 -143 42 -165 45 -22 2 -71 7 -110 10 -38
4 -88 8 -110 11 -84 9 -225 10 -334 3z m339 -234 c163 -20 230 -32 268 -45 18
-7 45 -10 60 -7 16 3 33 0 43 -9 8 -7 24 -15 35 -17 10 -2 27 -7 37 -12 10 -4
20 -5 23 -2 3 3 31 -3 61 -14 31 -10 64 -19 74 -19 10 0 41 -13 67 -30 27 -16
57 -30 66 -30 9 0 16 -4 16 -8 0 -5 23 -14 51 -20 27 -7 65 -23 82 -36 18 -13
73 -46 122 -72 50 -26 97 -53 106 -60 8 -8 19 -14 23 -14 4 0 19 -8 34 -19 15
-10 59 -39 98 -65 40 -26 105 -77 146 -114 41 -37 86 -77 100 -88 14 -12 27
-26 29 -31 2 -5 18 -17 36 -28 40 -25 269 -268 335 -355 27 -35 65 -83 84
-105 42 -48 100 -130 116 -165 7 -14 35 -56 62 -95 57 -79 161 -278 212 -404
19 -47 34 -87 34 -90 0 -7 -30 28 -65 74 -72 99 -231 257 -352 351 -75 59
-422 274 -443 274 -5 0 -37 13 -72 29 -189 87 -269 114 -428 147 -134 28 -246
44 -400 58 -102 10 -300 9 -480 -2 -175 -11 -239 -19 -390 -52 -52 -11 -115
-25 -140 -30 -41 -8 -85 -19 -210 -55 -25 -7 -61 -20 -80 -28 -19 -8 -60 -25
-90 -37 -30 -12 -62 -28 -70 -35 -8 -7 -24 -15 -35 -19 -11 -3 -44 -22 -73
-41 -30 -19 -56 -35 -59 -35 -3 0 -31 -17 -62 -37 -31 -21 -72 -46 -91 -57
-57 -30 -219 -163 -305 -250 -84 -85 -227 -278 -301 -406 -24 -41 -70 -142
-104 -225 -34 -82 -65 -161 -71 -174 -9 -23 -10 -23 -39 18 -17 23 -34 41 -39
41 -5 0 -16 11 -25 25 -13 19 -14 29 -5 43 9 14 8 25 -4 48 -13 25 -13 50 -5
169 5 77 16 160 24 184 8 24 18 65 21 90 3 25 12 59 20 74 8 15 24 67 37 115
52 194 141 411 207 502 16 22 29 43 29 48 0 4 11 24 25 44 14 20 25 46 25 56
0 11 9 31 20 45 36 46 85 121 103 159 10 21 22 40 27 43 6 4 21 28 35 54 76
151 357 462 515 570 49 33 94 61 100 61 6 0 32 11 58 25 26 14 59 25 74 25 15
0 29 4 33 9 3 6 27 13 53 16 26 4 78 16 115 27 45 12 82 17 106 13 20 -3 48
-2 61 4 37 14 198 12 330 -4z m37 -1237 c15 -24 62 -89 105 -145 l78 -102
-162 0 c-335 0 -487 -22 -537 -75 -22 -23 -23 -32 -19 -106 8 -129 -7 -114
-65 68 -17 55 -35 86 -75 132 -29 32 -52 61 -52 63 0 12 141 71 253 107 138
44 330 87 434 99 7 0 25 -18 40 -41z m2919 -1062 c29 -42 74 -130 102 -195 52
-121 57 -142 82 -383 20 -190 8 -530 -19 -560 -4 -4 -6 93 -6 215 0 228 -4
281 -28 402 -8 39 -18 91 -21 116 -6 44 -47 168 -94 284 -11 28 -28 70 -38 95
-10 25 -31 65 -47 89 -27 42 -27 44 -5 29 12 -8 46 -49 74 -92z m-28 -1548
c16 -27 15 -28 -13 -58 -37 -39 -46 -38 -34 2 5 18 9 46 9 61 0 34 15 32 38
-5z M2384 2461 c-114 -69 -126 -270 -33 -571 22 -73 40 -97 86 -116 53 -23 99
-18 134 14 30 27 32 32 30 93 0 35 -5 89 -11 119 -5 30 -11 73 -14 95 -8 71
-56 299 -69 324 -25 49 -80 68 -123 42z M4942 2178 c-13 -15 -22 -40 -24 -68
-3 -36 -5 -41 -12 -25 -25 56 -61 70 -96 35 -23 -23 -26 -92 -9 -205 13 -83
13 -287 -1 -365 -5 -30 -12 -86 -15 -125 -3 -38 -11 -117 -17 -175 -17 -138
-14 -201 8 -217 31 -22 102 -16 129 11 31 31 85 202 92 291 2 39 9 84 13 100
19 64 29 302 16 363 -5 19 -4 32 2 32 17 0 24 -33 29 -135 7 -172 16 -194 80
-200 44 -4 48 -2 87 45 28 34 28 36 22 120 -9 113 -47 269 -86 355 -5 11 -18
42 -30 70 -26 61 -45 83 -89 101 -47 20 -74 18 -99 -8z M3957 1309 c-10 -6
-32 -29 -48 -52 -146 -202 -340 -307 -603 -328 -157 -12 -232 -3 -359 46 -119
46 -166 76 -251 158 -77 75 -98 84 -150 67 -42 -13 -66 -43 -66 -80 0 -44 49
-127 104 -177 61 -56 291 -174 376 -194 30 -7 70 -18 88 -26 38 -16 243 -22
342 -10 114 13 217 45 321 98 41 21 80 39 85 39 6 0 54 41 107 91 80 75 103
104 131 162 47 98 54 154 26 190 -23 29 -68 36 -103 16z"/>
</g>
</svg>
