<?xml version="1.0" standalone="no"?>
<!DOCTYPE svg PUBLIC "-//W3C//DTD SVG 20010904//EN"
 "http://www.w3.org/TR/2001/REC-SVG-20010904/DTD/svg10.dtd">
<svg version="1.0" xmlns="http://www.w3.org/2000/svg"
 width="414.545497pt" height="476.104461pt" viewBox="0 0 414.545497 476.104461"
 preserveAspectRatio="xMidYMid meet">
<metadata>
Created by potrace 1.16, written by Peter Selinger 2001-2019
</metadata>
<g transform="translate(-6.193494,482.849861) scale(0.100000,-0.100000)"
fill="#ffffff" stroke="none">
<path d="M2320 4827 c-3 -3 -52 -8 -110 -12 -164 -11 -175 -13 -227 -29 -26
-9 -91 -28 -143 -43 -95 -27 -272 -107 -365 -166 -77 -48 -203 -156 -283 -242
-68 -73 -132 -155 -132 -170 0 -3 -8 -18 -19 -33 -65 -95 -105 -169 -122 -224
-11 -35 -29 -83 -41 -108 -25 -54 -45 -118 -59 -185 -9 -45 -31 -263 -32 -325
-1 -35 13 -172 19 -181 6 -11 42 -146 64 -246 14 -59 18 -113 16 -185 -2 -99
-21 -263 -32 -280 -3 -5 -27 -6 -52 -4 -26 3 -104 8 -174 11 -70 3 -131 6
-135 7 -35 11 -117 -65 -114 -106 1 -11 3 -59 5 -106 1 -47 8 -175 14 -285 13
-200 13 -200 -25 -229 -128 -99 -231 -254 -267 -401 -8 -33 -19 -82 -26 -110
-24 -102 -24 -195 0 -295 26 -111 28 -116 93 -199 40 -50 64 -70 112 -92 186
-85 167 -80 291 -68 88 8 149 32 197 78 62 56 72 120 36 216 -24 65 -75 104
-165 125 -55 13 -72 30 -31 30 43 0 144 58 166 95 51 87 58 219 15 287 -37 59
-80 94 -130 108 -62 18 -76 43 -68 127 3 38 1 104 -5 148 -7 44 -14 109 -17
145 -3 36 -7 71 -10 79 -2 8 -7 75 -10 149 -5 134 -5 134 28 128 18 -4 107 -9
198 -12 91 -3 166 -9 168 -13 1 -4 19 -5 38 -2 20 3 93 3 163 0 69 -4 236 -8
371 -10 215 -2 249 0 278 15 32 16 32 16 41 -6 5 -13 11 -63 14 -113 6 -97 22
-258 38 -395 5 -47 14 -125 19 -175 5 -49 14 -119 20 -155 13 -78 17 -464 8
-721 -7 -175 -25 -399 -33 -407 -4 -5 -91 -9 -360 -17 -104 -3 -224 -7 -265
-10 -117 -6 -585 -6 -602 0 -12 5 -19 31 -28 93 -22 165 -51 213 -111 182 -31
-17 -41 -56 -46 -187 -5 -161 14 -201 107 -216 126 -21 844 -26 1195 -10 110
6 210 6 223 2 12 -5 33 -4 46 1 40 15 52 56 54 181 1 62 6 141 11 174 5 33 9
78 9 100 -1 22 2 81 5 130 12 192 8 381 -14 570 -6 61 -13 148 -15 195 -6 189
-14 293 -23 304 -5 6 -14 74 -20 151 -7 77 -19 171 -27 208 -8 38 -18 99 -21
135 -3 37 -10 75 -15 84 -15 31 -67 51 -112 44 -23 -4 -52 -9 -66 -11 -13 -2
-30 1 -36 6 -12 9 -161 33 -288 45 -70 6 -70 6 -187 123 -65 65 -124 132 -132
152 -8 20 -24 45 -35 55 -47 44 -111 221 -114 314 0 8 -6 36 -13 62 -7 25 -11
49 -8 52 3 3 7 40 9 83 7 174 12 201 53 286 82 168 164 303 194 315 4 2 26 20
50 39 64 55 132 83 200 83 55 0 60 -2 107 -46 38 -35 50 -54 50 -76 0 -47 36
-104 113 -180 40 -38 71 -77 69 -85 -2 -8 14 -31 36 -52 22 -22 42 -52 45 -70
4 -17 18 -43 32 -56 41 -42 60 -98 36 -107 -13 -4 -154 -124 -211 -178 -150
-143 -250 -314 -250 -426 0 -40 26 -91 53 -105 59 -32 548 -47 712 -22 174 27
357 134 399 233 54 132 14 241 -133 365 -40 33 -91 77 -113 98 -22 21 -59 47
-81 58 -40 21 -40 21 6 67 26 26 70 74 99 107 28 33 64 63 79 68 38 10 92 73
84 98 -7 20 37 69 61 69 8 0 25 17 38 39 14 21 35 47 48 57 13 11 38 38 56 61
28 35 39 42 80 46 26 3 62 9 80 12 29 7 32 5 32 -17 0 -38 39 -68 98 -75 43
-5 59 -1 101 21 46 24 55 25 97 16 59 -14 119 -49 181 -106 26 -25 56 -50 66
-56 10 -5 34 -43 54 -83 19 -40 43 -81 54 -91 10 -9 19 -22 19 -28 0 -6 18
-40 40 -76 22 -36 40 -75 40 -88 0 -13 9 -35 19 -50 24 -33 31 -84 32 -229 0
-78 -4 -120 -14 -140 -8 -15 -17 -52 -21 -81 -4 -29 -16 -70 -28 -90 -12 -20
-27 -49 -35 -64 -7 -14 -32 -43 -55 -63 -36 -33 -40 -40 -29 -57 10 -17 4 -28
-50 -91 -86 -100 -210 -212 -261 -235 -24 -10 -49 -26 -57 -35 -16 -20 -18
-64 -4 -78 20 -20 146 -40 203 -32 30 4 58 8 63 8 14 0 133 -237 155 -310 13
-46 32 -139 32 -160 0 -26 -19 -16 -36 18 -67 132 -226 316 -260 303 -9 -3
-43 -6 -76 -6 -55 0 -63 -3 -94 -34 -25 -25 -34 -43 -34 -66 0 -37 45 -131 96
-203 40 -56 74 -139 74 -182 0 -17 4 -35 10 -41 18 -18 15 -293 -4 -342 -11
-32 -14 -62 -10 -115 6 -76 -9 -155 -71 -362 -31 -104 -37 -113 -125 -171 -63
-41 -68 -43 -141 -42 -50 0 -88 -6 -114 -17 -22 -10 -56 -17 -75 -16 -66 3
-258 -20 -306 -37 -57 -21 -64 -38 -33 -88 38 -62 97 -78 394 -103 164 -15
587 -2 651 19 17 6 95 19 173 29 128 17 148 22 199 54 74 45 126 111 177 227
9 19 23 48 31 63 9 15 17 49 19 75 2 26 7 81 10 122 5 51 3 84 -6 105 -7 17
-14 50 -15 75 -1 25 -7 88 -13 140 -6 52 -15 133 -20 180 -6 47 -17 110 -26
140 -9 30 -20 69 -25 85 -29 103 -75 224 -119 317 -28 58 -51 114 -51 123 0
19 -99 162 -141 204 -14 15 -29 36 -33 48 -4 12 -13 24 -21 27 -20 7 -19 33 0
44 33 18 115 106 141 150 15 26 39 63 54 82 65 85 183 315 200 390 4 19 12 55
18 80 32 130 39 260 28 483 -7 153 -25 252 -80 437 -90 300 -309 589 -564 741
-45 27 -88 49 -95 49 -7 0 -39 13 -72 29 -117 56 -135 63 -222 87 -122 35
-197 51 -273 59 -36 4 -74 9 -84 11 -33 6 -461 16 -466 11z m-8 -199 c97 -3
97 -3 31 -37 -39 -19 -107 -42 -161 -53 -85 -17 -141 -39 -143 -57 -2 -22 -10
-55 -13 -59 -2 -2 -44 -4 -92 -6 -109 -2 -132 -13 -140 -66 -9 -57 -33 -69
-179 -95 -38 -7 -94 -19 -123 -27 -29 -9 -62 -13 -75 -11 -12 2 -44 -7 -70
-20 -44 -23 -47 -23 -30 -4 71 80 204 191 267 223 27 13 65 37 85 52 20 16 56
36 81 46 25 10 64 26 88 37 23 10 49 19 56 19 7 0 33 9 58 20 24 10 68 22 98
25 30 3 73 10 95 14 22 5 47 7 55 5 8 -2 59 -4 112 -6z m-41 -1475 c137 -47
234 -132 260 -225 14 -53 2 -79 -49 -112 -90 -57 -258 -95 -457 -103 -167 -6
-235 4 -235 36 0 23 64 120 122 186 41 46 265 245 277 245 3 0 40 -12 82 -27z
m-1148 -695 c27 -33 47 -61 45 -63 -4 -4 -66 -8 -110 -6 -37 1 -37 2 -32 34 3
17 11 45 17 61 8 23 8 31 -1 34 -7 2 -12 16 -11 30 0 27 0 27 22 -2 12 -16 44
-56 70 -88z M1345 3658 c-83 -43 -112 -89 -140 -230 -29 -142 -5 -225 92 -310
49 -44 58 -48 104 -48 107 0 195 54 240 148 12 26 26 50 31 53 14 9 -9 211
-30 260 -56 130 -185 186 -297 127z M3264 3591 c-46 -8 -119 -48 -150 -83 -65
-73 -84 -158 -64 -288 16 -104 44 -142 138 -193 112 -60 206 -53 273 20 36 38
69 106 69 141 0 16 5 44 11 61 9 25 9 43 -1 74 -47 154 -57 174 -101 211 -56
47 -115 66 -175 57z M783 1945 c-26 -18 -37 -59 -23 -84 22 -41 70 -47 500
-57 329 -7 375 -2 386 42 8 33 -22 75 -62 86 -36 11 -415 27 -624 28 -121 0
-160 -3 -177 -15z M1025 1640 c-140 -8 -185 -37 -163 -102 15 -43 64 -54 308
-65 366 -18 461 -7 476 53 8 30 -21 64 -55 64 -9 1 -34 7 -56 15 -22 8 -78 17
-125 20 -204 13 -264 17 -274 19 -6 1 -56 0 -111 -4z M968 1285 c-16 -9 -28
-19 -29 -23 0 -4 -2 -17 -5 -28 -5 -31 28 -69 73 -81 23 -7 141 -12 298 -12
229 -1 264 1 294 17 44 22 60 46 45 69 -25 41 -154 60 -454 68 -166 5 -199 4
-222 -10z M1468 891 c-165 -169 -165 -169 -219 -114 -57 57 -114 93 -149 93
-27 0 -80 -52 -80 -78 0 -19 169 -251 210 -287 16 -15 36 -20 75 -20 63 0 83
16 170 130 30 39 85 104 123 146 71 79 136 175 147 219 10 41 -27 80 -74 80
-36 0 -47 -9 -203 -169z"/>
</g>
</svg>
