<svg xmlns="http://www.w3.org/2000/svg" viewBox="0 0 212.767 100.000" preserveAspectRatio="xMidYMid meet">
<!-- brand-duo-compact: girl (brand-head) + penguin (brand-penguin), tight viewBox,
     monochrome silhouette. Render with Slint colorize: Theme.text-primary so it is
     light on dark themes and dark on light themes. -->
<g transform="translate(0,0) scale(0.182459)"><g transform="translate(-6.918975,554.339071) scale(0.100000,-0.100000)"
fill="#ffffff" stroke="none">
<path d="M2491 5539 c-180 -13 -307 -40 -416 -89 -22 -10 -53 -21 -68 -25 -69
-15 -279 -120 -340 -169 -120 -98 -315 -314 -393 -438 -17 -27 -40 -59 -50
-71 -51 -59 -154 -229 -249 -412 -37 -71 -76 -141 -86 -154 -11 -13 -19 -28
-19 -34 0 -5 -13 -31 -29 -56 -16 -26 -36 -74 -46 -107 -9 -32 -30 -84 -46
-114 -16 -30 -29 -60 -29 -67 0 -7 -22 -85 -48 -175 -56 -187 -72 -262 -72
-339 -1 -30 -5 -74 -10 -99 -5 -27 -5 -62 1 -89 12 -53 5 -63 -70 -97 -31 -14
-66 -30 -77 -36 -36 -17 -148 -131 -188 -192 -53 -81 -96 -202 -96 -275 0 -50
4 -63 25 -82 33 -32 31 -39 -7 -33 -57 9 -86 -26 -99 -116 -13 -92 -13 -296
-1 -347 5 -21 15 -72 21 -113 18 -113 40 -193 62 -226 10 -16 19 -42 19 -59 0
-16 9 -48 20 -70 11 -22 19 -45 20 -51 0 -6 6 -17 14 -23 8 -7 18 -30 21 -53
17 -101 117 -250 175 -261 18 -4 35 -17 44 -34 33 -64 104 -104 248 -139 55
-13 123 -24 152 -24 53 0 53 0 65 -42 18 -59 62 -116 183 -235 94 -93 161
-150 209 -179 11 -6 27 -17 36 -26 24 -19 159 -98 170 -98 4 0 46 -18 93 -39
124 -57 294 -115 374 -127 16 -2 46 -9 65 -15 20 -6 77 -15 126 -21 50 -5 99
-11 110 -12 63 -9 275 -17 285 -11 23 14 -13 34 -123 69 -62 20 -146 44 -187
55 -242 63 -504 160 -587 217 -21 14 -69 41 -106 60 -120 61 -232 149 -382
302 -45 45 -57 66 -84 146 -17 51 -31 103 -31 114 0 11 -5 24 -10 27 -8 5 -8
11 -1 19 7 9 8 29 2 60 -11 60 4 57 38 -9 14 -27 31 -54 36 -61 21 -25 66 -81
105 -129 94 -117 239 -209 300 -190 26 8 43 41 42 82 -1 31 -42 182 -62 228
-4 11 -15 47 -23 80 -9 33 -31 119 -50 190 -31 113 -56 236 -88 420 -9 54 -30
235 -34 300 -2 22 -8 89 -14 149 -14 131 -15 326 -2 421 5 39 15 107 21 152
10 71 10 84 -5 106 -22 34 -69 40 -122 16 -55 -26 -68 -57 -90 -214 -20 -149
-21 -195 -3 -310 13 -83 13 -83 -14 -107 -24 -20 -29 -35 -37 -103 -5 -44 -7
-105 -4 -135 2 -30 7 -100 10 -155 9 -137 53 -278 99 -320 12 -10 87 -315 86
-350 0 -25 -92 146 -114 213 -9 27 -25 57 -34 65 -27 24 -68 37 -80 25 -11
-11 -20 86 -27 327 -3 83 -8 191 -12 240 -19 222 -7 380 42 550 104 367 282
660 583 962 23 23 55 50 70 58 15 9 54 33 87 55 33 22 69 45 80 51 19 11 19
11 3 -7 -25 -29 -123 -231 -143 -294 -9 -30 -23 -68 -30 -85 -7 -16 -16 -46
-19 -65 -4 -19 -14 -54 -23 -77 -16 -43 -16 -43 -69 -43 -50 0 -54 -2 -93 -47
-99 -116 -112 -264 -35 -416 45 -89 127 -130 182 -91 26 18 52 12 52 -11 0
-29 58 -131 82 -142 49 -25 86 -20 127 17 32 30 33 33 28 93 -3 34 -13 87 -22
117 -28 93 -37 386 -14 456 5 17 12 42 14 55 25 138 75 261 134 327 38 44 38
44 69 -50 67 -202 131 -296 269 -394 68 -49 114 -58 154 -31 13 10 31 17 41
17 27 0 51 56 45 104 -10 70 -36 180 -51 211 -42 90 -91 249 -81 265 6 9 431
3 584 -8 78 -6 86 -9 98 -32 41 -83 95 -205 118 -265 14 -38 35 -88 46 -110
11 -23 22 -58 26 -80 3 -21 17 -68 31 -104 13 -36 26 -84 29 -106 2 -22 12
-56 22 -75 10 -19 24 -64 31 -100 23 -117 71 -190 124 -190 12 0 43 13 69 30
46 29 47 30 47 82 0 36 -14 90 -41 168 -23 63 -51 149 -64 190 -42 135 -85
243 -141 355 -31 61 -69 145 -85 189 -26 72 -27 77 -8 60 41 -37 88 -111 130
-204 24 -52 59 -120 78 -150 19 -30 98 -179 174 -330 77 -151 157 -305 179
-342 22 -37 46 -88 54 -114 14 -46 14 -46 -30 -88 -48 -47 -69 -98 -86 -208
-12 -80 0 -240 24 -306 42 -118 132 -158 201 -89 52 52 68 141 44 247 -5 25
-14 79 -19 120 -5 41 -12 89 -15 105 -7 30 -7 30 13 -1 41 -64 93 -81 129 -41
35 38 34 44 -2 149 -31 89 -64 156 -166 338 -11 19 -56 107 -101 195 -44 88
-89 172 -100 188 -26 37 -258 503 -258 519 0 7 7 3 15 -10 9 -12 36 -35 60
-52 25 -17 72 -63 105 -103 34 -40 71 -83 82 -97 12 -14 57 -71 100 -128 42
-57 91 -117 107 -135 141 -151 244 -312 301 -469 24 -64 54 -108 76 -108 31 0
76 33 89 65 24 57 -18 233 -119 500 -15 39 -38 111 -52 160 -32 112 -50 174
-59 200 -21 56 61 -64 112 -165 32 -63 67 -131 78 -150 25 -44 111 -229 137
-295 42 -109 128 -377 128 -402 0 -10 9 -38 20 -61 11 -22 20 -49 20 -58 0
-31 39 -100 64 -113 49 -27 118 12 128 72 10 55 -35 241 -99 407 -14 36 -42
112 -63 170 -54 149 -265 559 -327 634 -13 16 -35 50 -49 75 -14 25 -45 73
-69 106 -24 33 -57 79 -72 102 -19 28 -43 49 -75 62 -59 26 -79 26 -112 0 -26
-21 -26 -21 -21 -157 5 -145 29 -252 80 -369 14 -30 25 -60 25 -66 0 -18 -57
46 -107 119 -25 38 -83 113 -127 167 -45 54 -112 137 -149 185 -156 200 -163
207 -231 231 -47 17 -68 20 -88 12 -39 -15 -41 -30 -22 -145 6 -39 6 -39 -30
-11 -20 16 -41 36 -46 45 -11 21 -174 160 -187 160 -6 0 -18 10 -29 21 -10 12
-38 35 -61 51 -24 16 -43 33 -43 38 0 14 417 3 540 -14 138 -19 320 -61 377
-86 25 -11 53 -20 63 -20 20 0 249 -89 312 -121 45 -23 176 -114 292 -202 104
-80 324 -336 404 -472 23 -38 64 -93 91 -121 28 -29 53 -65 57 -80 4 -16 16
-45 27 -64 67 -118 69 -125 50 -128 -59 -11 -56 -88 8 -270 11 -30 19 -73 19
-95 0 -23 9 -66 20 -95 16 -41 18 -58 10 -73 -8 -14 -8 -30 -1 -52 13 -41 13
-362 0 -487 -5 -52 -13 -133 -18 -180 -5 -47 -18 -112 -29 -145 -11 -33 -23
-71 -26 -85 -3 -14 -21 -47 -40 -75 -20 -27 -61 -88 -92 -135 -126 -188 -206
-274 -404 -431 -67 -54 -248 -173 -305 -201 -27 -14 -84 -43 -125 -64 -72 -37
-122 -60 -255 -117 -33 -14 -101 -36 -150 -48 -222 -53 -355 -98 -396 -132
-16 -14 -17 -21 -9 -37 14 -26 40 -32 152 -34 152 -2 328 34 588 121 53 18
231 92 245 103 6 4 49 28 97 53 266 138 645 508 739 723 21 46 22 47 104 44
78 -2 215 34 307 82 138 72 316 305 359 473 69 266 84 431 58 655 -21 175 -72
358 -134 480 -19 36 -52 105 -74 154 -105 230 -317 430 -441 416 -25 -3 -53
-4 -63 -1 -19 4 -69 103 -92 181 -33 111 -150 347 -250 501 -139 214 -177 265
-287 383 -51 55 -102 111 -113 125 -45 58 -340 342 -396 383 -33 24 -77 56
-97 71 -20 16 -52 35 -71 43 -19 8 -53 30 -75 50 -53 47 -125 88 -261 148 -60
27 -146 67 -190 88 -53 26 -97 39 -130 41 -30 2 -64 12 -85 25 -19 12 -46 22
-60 22 -14 0 -81 18 -150 40 -69 22 -143 42 -165 45 -22 2 -71 7 -110 10 -38
4 -88 8 -110 11 -84 9 -225 10 -334 3z m339 -234 c163 -20 230 -32 268 -45 18
-7 45 -10 60 -7 16 3 33 0 43 -9 8 -7 24 -15 35 -17 10 -2 27 -7 37 -12 10 -4
20 -5 23 -2 3 3 31 -3 61 -14 31 -10 64 -19 74 -19 10 0 41 -13 67 -30 27 -16
57 -30 66 -30 9 0 16 -4 16 -8 0 -5 23 -14 51 -20 27 -7 65 -23 82 -36 18 -13
73 -46 122 -72 50 -26 97 -53 106 -60 8 -8 19 -14 23 -14 4 0 19 -8 34 -19 15
-10 59 -39 98 -65 40 -26 105 -77 146 -114 41 -37 86 -77 100 -88 14 -12 27
-26 29 -31 2 -5 18 -17 36 -28 40 -25 269 -268 335 -355 27 -35 65 -83 84
-105 42 -48 100 -130 116 -165 7 -14 35 -56 62 -95 57 -79 161 -278 212 -404
19 -47 34 -87 34 -90 0 -7 -30 28 -65 74 -72 99 -231 257 -352 351 -75 59
-422 274 -443 274 -5 0 -37 13 -72 29 -189 87 -269 114 -428 147 -134 28 -246
44 -400 58 -102 10 -300 9 -480 -2 -175 -11 -239 -19 -390 -52 -52 -11 -115
-25 -140 -30 -41 -8 -85 -19 -210 -55 -25 -7 -61 -20 -80 -28 -19 -8 -60 -25
-90 -37 -30 -12 -62 -28 -70 -35 -8 -7 -24 -15 -35 -19 -11 -3 -44 -22 -73
-41 -30 -19 -56 -35 -59 -35 -3 0 -31 -17 -62 -37 -31 -21 -72 -46 -91 -57
-57 -30 -219 -163 -305 -250 -84 -85 -227 -278 -301 -406 -24 -41 -70 -142
-104 -225 -34 -82 -65 -161 -71 -174 -9 -23 -10 -23 -39 18 -17 23 -34 41 -39
41 -5 0 -16 11 -25 25 -13 19 -14 29 -5 43 9 14 8 25 -4 48 -13 25 -13 50 -5
169 5 77 16 160 24 184 8 24 18 65 21 90 3 25 12 59 20 74 8 15 24 67 37 115
52 194 141 411 207 502 16 22 29 43 29 48 0 4 11 24 25 44 14 20 25 46 25 56
0 11 9 31 20 45 36 46 85 121 103 159 10 21 22 40 27 43 6 4 21 28 35 54 76
151 357 462 515 570 49 33 94 61 100 61 6 0 32 11 58 25 26 14 59 25 74 25 15
0 29 4 33 9 3 6 27 13 53 16 26 4 78 16 115 27 45 12 82 17 106 13 20 -3 48
-2 61 4 37 14 198 12 330 -4z m37 -1237 c15 -24 62 -89 105 -145 l78 -102
-162 0 c-335 0 -487 -22 -537 -75 -22 -23 -23 -32 -19 -106 8 -129 -7 -114
-65 68 -17 55 -35 86 -75 132 -29 32 -52 61 -52 63 0 12 141 71 253 107 138
44 330 87 434 99 7 0 25 -18 40 -41z m2919 -1062 c29 -42 74 -130 102 -195 52
-121 57 -142 82 -383 20 -190 8 -530 -19 -560 -4 -4 -6 93 -6 215 0 228 -4
281 -28 402 -8 39 -18 91 -21 116 -6 44 -47 168 -94 284 -11 28 -28 70 -38 95
-10 25 -31 65 -47 89 -27 42 -27 44 -5 29 12 -8 46 -49 74 -92z m-28 -1548
c16 -27 15 -28 -13 -58 -37 -39 -46 -38 -34 2 5 18 9 46 9 61 0 34 15 32 38
-5z M2384 2461 c-114 -69 -126 -270 -33 -571 22 -73 40 -97 86 -116 53 -23 99
-18 134 14 30 27 32 32 30 93 0 35 -5 89 -11 119 -5 30 -11 73 -14 95 -8 71
-56 299 -69 324 -25 49 -80 68 -123 42z M4942 2178 c-13 -15 -22 -40 -24 -68
-3 -36 -5 -41 -12 -25 -25 56 -61 70 -96 35 -23 -23 -26 -92 -9 -205 13 -83
13 -287 -1 -365 -5 -30 -12 -86 -15 -125 -3 -38 -11 -117 -17 -175 -17 -138
-14 -201 8 -217 31 -22 102 -16 129 11 31 31 85 202 92 291 2 39 9 84 13 100
19 64 29 302 16 363 -5 19 -4 32 2 32 17 0 24 -33 29 -135 7 -172 16 -194 80
-200 44 -4 48 -2 87 45 28 34 28 36 22 120 -9 113 -47 269 -86 355 -5 11 -18
42 -30 70 -26 61 -45 83 -89 101 -47 20 -74 18 -99 -8z M3957 1309 c-10 -6
-32 -29 -48 -52 -146 -202 -340 -307 -603 -328 -157 -12 -232 -3 -359 46 -119
46 -166 76 -251 158 -77 75 -98 84 -150 67 -42 -13 -66 -43 -66 -80 0 -44 49
-127 104 -177 61 -56 291 -174 376 -194 30 -7 70 -18 88 -26 38 -16 243 -22
342 -10 114 13 217 45 321 98 41 21 80 39 85 39 6 0 54 41 107 91 80 75 103
104 131 162 47 98 54 154 26 190 -23 29 -68 36 -103 16z"/>
</g></g>
<g transform="translate(125.697,0) scale(0.210038)"><g transform="translate(-6.193494,482.849861) scale(0.100000,-0.100000)"
fill="#ffffff" stroke="none">
<path d="M2320 4827 c-3 -3 -52 -8 -110 -12 -164 -11 -175 -13 -227 -29 -26
-9 -91 -28 -143 -43 -95 -27 -272 -107 -365 -166 -77 -48 -203 -156 -283 -242
-68 -73 -132 -155 -132 -170 0 -3 -8 -18 -19 -33 -65 -95 -105 -169 -122 -224
-11 -35 -29 -83 -41 -108 -25 -54 -45 -118 -59 -185 -9 -45 -31 -263 -32 -325
-1 -35 13 -172 19 -181 6 -11 42 -146 64 -246 14 -59 18 -113 16 -185 -2 -99
-21 -263 -32 -280 -3 -5 -27 -6 -52 -4 -26 3 -104 8 -174 11 -70 3 -131 6
-135 7 -35 11 -117 -65 -114 -106 1 -11 3 -59 5 -106 1 -47 8 -175 14 -285 13
-200 13 -200 -25 -229 -128 -99 -231 -254 -267 -401 -8 -33 -19 -82 -26 -110
-24 -102 -24 -195 0 -295 26 -111 28 -116 93 -199 40 -50 64 -70 112 -92 186
-85 167 -80 291 -68 88 8 149 32 197 78 62 56 72 120 36 216 -24 65 -75 104
-165 125 -55 13 -72 30 -31 30 43 0 144 58 166 95 51 87 58 219 15 287 -37 59
-80 94 -130 108 -62 18 -76 43 -68 127 3 38 1 104 -5 148 -7 44 -14 109 -17
145 -3 36 -7 71 -10 79 -2 8 -7 75 -10 149 -5 134 -5 134 28 128 18 -4 107 -9
198 -12 91 -3 166 -9 168 -13 1 -4 19 -5 38 -2 20 3 93 3 163 0 69 -4 236 -8
371 -10 215 -2 249 0 278 15 32 16 32 16 41 -6 5 -13 11 -63 14 -113 6 -97 22
-258 38 -395 5 -47 14 -125 19 -175 5 -49 14 -119 20 -155 13 -78 17 -464 8
-721 -7 -175 -25 -399 -33 -407 -4 -5 -91 -9 -360 -17 -104 -3 -224 -7 -265
-10 -117 -6 -585 -6 -602 0 -12 5 -19 31 -28 93 -22 165 -51 213 -111 182 -31
-17 -41 -56 -46 -187 -5 -161 14 -201 107 -216 126 -21 844 -26 1195 -10 110
6 210 6 223 2 12 -5 33 -4 46 1 40 15 52 56 54 181 1 62 6 141 11 174 5 33 9
78 9 100 -1 22 2 81 5 130 12 192 8 381 -14 570 -6 61 -13 148 -15 195 -6 189
-14 293 -23 304 -5 6 -14 74 -20 151 -7 77 -19 171 -27 208 -8 38 -18 99 -21
135 -3 37 -10 75 -15 84 -15 31 -67 51 -112 44 -23 -4 -52 -9 -66 -11 -13 -2
-30 1 -36 6 -12 9 -161 33 -288 45 -70 6 -70 6 -187 123 -65 65 -124 132 -132
152 -8 20 -24 45 -35 55 -47 44 -111 221 -114 314 0 8 -6 36 -13 62 -7 25 -11
49 -8 52 3 3 7 40 9 83 7 174 12 201 53 286 82 168 164 303 194 315 4 2 26 20
50 39 64 55 132 83 200 83 55 0 60 -2 107 -46 38 -35 50 -54 50 -76 0 -47 36
-104 113 -180 40 -38 71 -77 69 -85 -2 -8 14 -31 36 -52 22 -22 42 -52 45 -70
4 -17 18 -43 32 -56 41 -42 60 -98 36 -107 -13 -4 -154 -124 -211 -178 -150
-143 -250 -314 -250 -426 0 -40 26 -91 53 -105 59 -32 548 -47 712 -22 174 27
357 134 399 233 54 132 14 241 -133 365 -40 33 -91 77 -113 98 -22 21 -59 47
-81 58 -40 21 -40 21 6 67 26 26 70 74 99 107 28 33 64 63 79 68 38 10 92 73
84 98 -7 20 37 69 61 69 8 0 25 17 38 39 14 21 35 47 48 57 13 11 38 38 56 61
28 35 39 42 80 46 26 3 62 9 80 12 29 7 32 5 32 -17 0 -38 39 -68 98 -75 43
-5 59 -1 101 21 46 24 55 25 97 16 59 -14 119 -49 181 -106 26 -25 56 -50 66
-56 10 -5 34 -43 54 -83 19 -40 43 -81 54 -91 10 -9 19 -22 19 -28 0 -6 18
-40 40 -76 22 -36 40 -75 40 -88 0 -13 9 -35 19 -50 24 -33 31 -84 32 -229 0
-78 -4 -120 -14 -140 -8 -15 -17 -52 -21 -81 -4 -29 -16 -70 -28 -90 -12 -20
-27 -49 -35 -64 -7 -14 -32 -43 -55 -63 -36 -33 -40 -40 -29 -57 10 -17 4 -28
-50 -91 -86 -100 -210 -212 -261 -235 -24 -10 -49 -26 -57 -35 -16 -20 -18
-64 -4 -78 20 -20 146 -40 203 -32 30 4 58 8 63 8 14 0 133 -237 155 -310 13
-46 32 -139 32 -160 0 -26 -19 -16 -36 18 -67 132 -226 316 -260 303 -9 -3
-43 -6 -76 -6 -55 0 -63 -3 -94 -34 -25 -25 -34 -43 -34 -66 0 -37 45 -131 96
-203 40 -56 74 -139 74 -182 0 -17 4 -35 10 -41 18 -18 15 -293 -4 -342 -11
-32 -14 -62 -10 -115 6 -76 -9 -155 -71 -362 -31 -104 -37 -113 -125 -171 -63
-41 -68 -43 -141 -42 -50 0 -88 -6 -114 -17 -22 -10 -56 -17 -75 -16 -66 3
-258 -20 -306 -37 -57 -21 -64 -38 -33 -88 38 -62 97 -78 394 -103 164 -15
587 -2 651 19 17 6 95 19 173 29 128 17 148 22 199 54 74 45 126 111 177 227
9 19 23 48 31 63 9 15 17 49 19 75 2 26 7 81 10 122 5 51 3 84 -6 105 -7 17
-14 50 -15 75 -1 25 -7 88 -13 140 -6 52 -15 133 -20 180 -6 47 -17 110 -26
140 -9 30 -20 69 -25 85 -29 103 -75 224 -119 317 -28 58 -51 114 -51 123 0
19 -99 162 -141 204 -14 15 -29 36 -33 48 -4 12 -13 24 -21 27 -20 7 -19 33 0
44 33 18 115 106 141 150 15 26 39 63 54 82 65 85 183 315 200 390 4 19 12 55
18 80 32 130 39 260 28 483 -7 153 -25 252 -80 437 -90 300 -309 589 -564 741
-45 27 -88 49 -95 49 -7 0 -39 13 -72 29 -117 56 -135 63 -222 87 -122 35
-197 51 -273 59 -36 4 -74 9 -84 11 -33 6 -461 16 -466 11z m-8 -199 c97 -3
97 -3 31 -37 -39 -19 -107 -42 -161 -53 -85 -17 -141 -39 -143 -57 -2 -22 -10
-55 -13 -59 -2 -2 -44 -4 -92 -6 -109 -2 -132 -13 -140 -66 -9 -57 -33 -69
-179 -95 -38 -7 -94 -19 -123 -27 -29 -9 -62 -13 -75 -11 -12 2 -44 -7 -70
-20 -44 -23 -47 -23 -30 -4 71 80 204 191 267 223 27 13 65 37 85 52 20 16 56
36 81 46 25 10 64 26 88 37 23 10 49 19 56 19 7 0 33 9 58 20 24 10 68 22 98
25 30 3 73 10 95 14 22 5 47 7 55 5 8 -2 59 -4 112 -6z m-41 -1475 c137 -47
234 -132 260 -225 14 -53 2 -79 -49 -112 -90 -57 -258 -95 -457 -103 -167 -6
-235 4 -235 36 0 23 64 120 122 186 41 46 265 245 277 245 3 0 40 -12 82 -27z
m-1148 -695 c27 -33 47 -61 45 -63 -4 -4 -66 -8 -110 -6 -37 1 -37 2 -32 34 3
17 11 45 17 61 8 23 8 31 -1 34 -7 2 -12 16 -11 30 0 27 0 27 22 -2 12 -16 44
-56 70 -88z M1345 3658 c-83 -43 -112 -89 -140 -230 -29 -142 -5 -225 92 -310
49 -44 58 -48 104 -48 107 0 195 54 240 148 12 26 26 50 31 53 14 9 -9 211
-30 260 -56 130 -185 186 -297 127z M3264 3591 c-46 -8 -119 -48 -150 -83 -65
-73 -84 -158 -64 -288 16 -104 44 -142 138 -193 112 -60 206 -53 273 20 36 38
69 106 69 141 0 16 5 44 11 61 9 25 9 43 -1 74 -47 154 -57 174 -101 211 -56
47 -115 66 -175 57z M783 1945 c-26 -18 -37 -59 -23 -84 22 -41 70 -47 500
-57 329 -7 375 -2 386 42 8 33 -22 75 -62 86 -36 11 -415 27 -624 28 -121 0
-160 -3 -177 -15z M1025 1640 c-140 -8 -185 -37 -163 -102 15 -43 64 -54 308
-65 366 -18 461 -7 476 53 8 30 -21 64 -55 64 -9 1 -34 7 -56 15 -22 8 -78 17
-125 20 -204 13 -264 17 -274 19 -6 1 -56 0 -111 -4z M968 1285 c-16 -9 -28
-19 -29 -23 0 -4 -2 -17 -5 -28 -5 -31 28 -69 73 -81 23 -7 141 -12 298 -12
229 -1 264 1 294 17 44 22 60 46 45 69 -25 41 -154 60 -454 68 -166 5 -199 4
-222 -10z M1468 891 c-165 -169 -165 -169 -219 -114 -57 57 -114 93 -149 93
-27 0 -80 -52 -80 -78 0 -19 169 -251 210 -287 16 -15 36 -20 75 -20 63 0 83
16 170 130 30 39 85 104 123 146 71 79 136 175 147 219 10 41 -27 80 -74 80
-36 0 -47 -9 -203 -169z"/>
</g></g>
</svg>
