<?xml version="1.0" standalone="no"?>
<!DOCTYPE svg PUBLIC "-//W3C//DTD SVG 20010904//EN"
 "http://www.w3.org/TR/2001/REC-SVG-20010904/DTD/svg10.dtd">
<svg version="1.0" xmlns="http://www.w3.org/2000/svg"
 width="1024.000000pt" height="1024.000000pt" viewBox="0 0 1024.000000 1024.000000"
 preserveAspectRatio="xMidYMid meet">
<metadata>
Created by potrace 1.16, written by Peter Selinger 2001-2019
</metadata>
<g transform="translate(0.000000,1024.000000) scale(0.100000,-0.100000)"
fill="#ffffff" stroke="none">
<path d="M3760 10023 c-128 -30 -410 -149 -410 -173 0 -4 -14 -13 -31 -21 -39
-16 -102 -65 -194 -152 -38 -37 -77 -69 -85 -72 -8 -3 -25 -20 -37 -37 -12
-18 -42 -53 -66 -78 -24 -25 -54 -61 -67 -80 -13 -19 -49 -64 -80 -100 -32
-36 -68 -81 -81 -101 -13 -20 -58 -88 -99 -150 -87 -131 -86 -130 -123 -198
-15 -29 -45 -80 -66 -114 -20 -34 -47 -82 -58 -107 -38 -81 -63 -139 -63 -146
0 -5 -23 -61 -61 -149 -52 -119 -103 -309 -114 -425 -3 -36 -8 -83 -10 -105
-2 -22 -4 -63 -4 -91 -1 -50 -1 -50 -69 -72 -99 -32 -215 -117 -282 -207 -8
-11 -27 -37 -42 -57 -16 -20 -28 -41 -28 -47 0 -5 -11 -31 -25 -57 -39 -74
-36 -166 7 -206 34 -32 28 -48 -19 -48 -54 0 -82 -39 -89 -124 -2 -28 -9 -82
-15 -119 -6 -37 -8 -78 -5 -91 3 -12 8 -76 11 -141 4 -66 10 -124 14 -130 5
-5 11 -37 15 -69 4 -33 11 -65 17 -72 6 -7 13 -34 16 -61 2 -26 8 -52 12 -58
5 -5 16 -41 25 -80 22 -90 89 -218 137 -262 21 -19 41 -48 44 -64 4 -16 11
-31 16 -35 5 -3 18 -22 29 -43 18 -36 42 -54 127 -95 13 -6 23 -18 23 -26 0
-24 40 -43 103 -51 57 -7 100 4 168 41 21 11 40 -9 104 -115 27 -44 66 -98 85
-120 20 -22 44 -51 53 -65 19 -27 131 -126 219 -192 31 -24 64 -56 72 -73 8
-16 29 -61 48 -99 49 -103 151 -188 337 -281 41 -20 97 -52 124 -71 27 -19 64
-41 81 -48 123 -56 160 -70 262 -96 63 -17 120 -27 126 -24 6 4 72 9 147 11
153 6 174 12 169 51 -3 23 -10 29 -53 40 -64 16 -153 33 -185 35 -14 1 -31 6
-38 11 -7 4 -16 5 -19 2 -4 -3 -16 2 -27 13 -20 17 -81 42 -116 46 -34 4 -70
18 -70 26 0 13 24 11 83 -6 29 -8 77 -16 107 -19 30 -2 138 -16 240 -30 237
-34 320 -24 320 39 0 41 -27 46 -359 70 -34 2 -47 8 -52 23 -10 25 -32 37 -84
46 -258 44 -507 129 -598 203 -16 13 -37 23 -47 23 -11 0 -34 13 -52 29 -18
15 -47 35 -65 44 -17 9 -37 23 -45 30 -27 27 -123 87 -139 87 -10 0 -28 12
-41 28 -12 15 -35 35 -50 45 -104 66 -269 248 -279 306 -4 20 -14 71 -22 114
-20 98 -33 235 -21 224 5 -5 16 -27 24 -50 34 -94 170 -282 263 -361 65 -56
79 -55 131 5 39 46 43 24 -46 292 -27 81 -46 152 -42 158 3 6 -1 29 -10 52
-16 43 -38 203 -40 293 -1 32 -7 59 -17 70 -16 19 -35 144 -44 294 -7 114 -8
537 -1 548 3 5 6 48 7 96 1 47 5 86 8 86 15 0 31 44 37 100 6 58 5 61 -26 90
-100 94 -168 -2 -186 -260 -2 -41 -6 -91 -8 -110 -1 -19 -3 -74 -4 -121 -2
-80 -4 -87 -26 -97 -56 -25 -23 -444 53 -668 16 -49 32 -120 36 -157 4 -37 11
-82 17 -100 5 -18 13 -48 18 -67 4 -19 11 -43 15 -52 4 -11 3 -18 -4 -18 -15
0 -42 55 -58 120 -8 30 -18 69 -22 87 -18 69 -62 117 -116 125 -21 3 -26 102
-10 183 3 17 6 37 6 45 -1 52 -11 361 -17 499 -4 116 -3 176 6 205 13 45 19
70 50 196 12 47 34 112 49 145 16 33 34 75 41 93 60 154 298 476 452 613 69
61 182 149 192 149 4 0 17 9 29 21 26 25 77 53 77 42 0 -4 -18 -25 -39 -48
-54 -54 -166 -276 -185 -363 -22 -108 -28 -117 -81 -132 -199 -56 -255 -353
-98 -518 43 -45 73 -52 107 -27 27 21 36 19 37 -7 3 -104 101 -211 169 -185
63 24 75 48 62 124 -6 38 -10 91 -10 119 0 29 -5 68 -12 88 -8 25 -9 45 -1 69
5 17 10 75 11 128 0 53 5 120 11 150 5 30 14 79 19 109 17 94 118 300 148 300
11 0 42 -60 42 -81 0 -11 12 -38 26 -61 14 -23 27 -47 28 -54 1 -8 22 -44 47
-81 24 -37 50 -77 57 -90 17 -30 70 -69 107 -77 17 -4 37 -14 46 -22 31 -28
75 -29 94 -1 9 14 26 27 38 29 41 6 33 111 -19 268 -44 129 -75 242 -70 248 5
4 232 14 391 16 134 1 245 -19 245 -45 0 -3 18 -39 40 -79 22 -40 40 -77 40
-83 0 -5 18 -48 41 -96 22 -47 45 -95 50 -106 14 -33 39 -109 39 -123 0 -7 9
-31 19 -55 45 -96 83 -236 108 -389 12 -75 96 -115 158 -74 45 29 48 48 25
149 -44 199 -53 233 -66 257 -7 14 -22 52 -34 84 -12 33 -28 71 -35 85 -8 15
-42 92 -76 173 -33 81 -72 165 -86 185 -24 34 -83 143 -83 151 0 11 43 -31 82
-79 69 -84 95 -127 153 -251 29 -62 67 -138 84 -168 17 -30 40 -73 50 -95 11
-22 28 -53 37 -70 9 -16 21 -37 25 -45 5 -8 21 -37 36 -64 136 -239 239 -449
223 -454 -27 -9 -71 -57 -91 -100 -40 -81 -37 -373 3 -489 31 -87 161 -73 188
20 12 46 9 208 -8 360 -5 37 -7 67 -5 67 2 0 24 -16 49 -35 42 -33 48 -35 68
-22 22 15 30 72 15 112 -70 189 -228 522 -304 641 -43 67 -125 221 -125 235 0
5 -22 48 -50 97 -27 48 -55 103 -61 122 -7 19 -19 46 -28 60 -20 30 -42 92
-35 99 7 7 74 -61 74 -76 0 -7 30 -43 68 -80 37 -38 76 -79 86 -93 11 -14 42
-51 70 -84 28 -32 60 -69 71 -82 58 -68 317 -417 352 -474 12 -19 31 -60 43
-90 63 -161 190 -157 166 5 -4 28 -10 57 -13 65 -4 8 -25 69 -48 135 -23 66
-59 165 -79 220 -71 192 -99 280 -98 307 0 15 -6 32 -14 39 -8 6 -14 21 -14
33 0 27 85 -63 107 -113 8 -18 25 -50 38 -71 13 -21 56 -100 95 -176 39 -77
75 -143 81 -148 5 -6 9 -17 9 -25 0 -15 41 -109 106 -246 18 -38 37 -88 43
-110 5 -22 14 -53 19 -70 6 -16 20 -64 32 -105 12 -41 27 -90 32 -109 6 -19
24 -47 41 -62 30 -28 30 -29 17 -69 -13 -40 -30 -54 -30 -25 0 22 -37 18 -61
-6 -15 -15 -19 -27 -14 -50 4 -18 2 -36 -5 -44 -9 -10 -10 -32 -6 -68 24 -181
23 -275 -6 -622 -19 -234 -17 -284 16 -312 55 -47 136 -21 155 49 14 55 41
201 45 253 11 125 15 181 21 285 7 129 13 161 25 139 4 -8 8 -32 7 -54 -1 -69
14 -185 24 -185 5 0 9 -7 9 -15 0 -30 97 -8 119 27 45 72 -45 548 -118 621 -6
6 -11 16 -11 23 0 16 -71 58 -79 46 -8 -11 -51 -22 -51 -13 0 4 10 13 23 20
56 30 51 132 -15 326 -11 33 -25 80 -32 105 -6 25 -21 63 -32 85 -12 22 -29
65 -39 95 -23 73 -173 372 -242 485 -94 152 -346 479 -387 502 -99 57 -171
-49 -91 -134 42 -45 43 -51 8 -55 -40 -5 -46 -47 -16 -134 76 -225 88 -307 29
-206 -6 11 -46 62 -88 113 -201 245 -245 300 -304 374 -160 202 -337 197 -249
-7 15 -36 -14 -15 -116 82 -114 110 -196 178 -247 204 -77 40 -12 55 223 55
88 -1 183 -5 210 -9 28 -5 88 -14 135 -21 239 -33 551 -135 706 -231 34 -21
64 -38 67 -38 13 0 113 -65 150 -97 20 -18 41 -33 46 -33 44 0 367 -376 456
-531 17 -28 45 -69 63 -89 17 -21 32 -46 32 -55 0 -10 6 -26 14 -34 7 -9 21
-43 31 -76 9 -33 22 -67 29 -75 24 -28 26 -49 7 -59 -26 -14 -25 -69 4 -186
46 -192 77 -608 56 -765 -18 -132 -68 -351 -84 -366 -4 -4 -7 -22 -7 -40 0
-28 -7 -36 -51 -64 -32 -19 -49 -36 -46 -45 9 -23 -19 -111 -61 -188 -162
-301 -584 -655 -947 -794 -38 -15 -74 -30 -80 -34 -33 -22 -402 -129 -447
-129 -41 0 -52 -29 -28 -74 27 -53 41 -68 59 -61 9 4 63 15 121 26 104 19 196
43 296 78 51 18 51 18 57 -78 7 -128 34 -255 68 -316 15 -27 32 -69 39 -92 6
-24 24 -72 40 -107 15 -35 26 -66 24 -69 -2 -2 5 -12 16 -22 11 -10 20 -24 20
-31 0 -8 12 -53 26 -101 15 -49 29 -98 31 -110 3 -12 16 -34 29 -48 28 -30 30
-30 -96 -45 -240 -28 -370 -104 -456 -266 -38 -71 -62 -154 -99 -349 -26 -132
-36 -188 -45 -230 -13 -67 -29 -148 -34 -180 -56 -333 -85 -445 -117 -445 -34
0 -48 -12 -126 -107 -176 -216 -378 -442 -453 -507 -30 -26 -101 -93 -157
-149 -115 -113 -128 -144 -75 -170 57 -28 129 13 286 163 295 283 440 450 493
567 40 88 57 107 42 46 -11 -42 -40 -209 -41 -233 0 -8 -4 -19 -8 -25 -4 -5
-8 -30 -9 -54 -1 -25 -4 -49 -7 -53 -3 -5 -7 -19 -8 -31 -2 -12 -8 -44 -15
-72 -6 -27 -19 -92 -29 -144 -14 -77 -20 -95 -36 -97 -10 -1 -28 -11 -40 -22
-11 -10 -57 -43 -101 -73 -44 -30 -109 -75 -145 -100 -36 -25 -128 -76 -205
-114 -153 -75 -185 -97 -185 -130 0 -55 191 -37 347 31 59 26 201 117 220 141
7 9 27 31 45 51 18 20 41 49 51 66 18 31 18 31 13 -9 -13 -99 -35 -223 -45
-255 -15 -45 -45 -205 -66 -350 -9 -63 -21 -129 -26 -146 -19 -63 52 -142 87
-97 26 33 31 48 38 108 4 33 13 85 21 115 7 30 21 100 30 155 9 55 23 118 30
140 8 22 17 71 20 110 4 38 11 79 16 92 4 12 10 41 13 65 3 24 10 66 16 93 5
28 15 77 20 110 23 137 42 243 51 283 5 23 19 95 30 160 11 64 29 167 40 227
11 61 21 126 24 145 6 54 26 160 42 220 16 65 17 70 33 175 6 44 14 83 16 87
3 4 18 85 34 180 17 95 34 184 39 198 10 27 24 91 40 180 14 83 38 160 55 179
9 10 16 22 16 27 0 17 54 76 91 100 89 56 185 71 504 79 94 2 256 6 360 10
236 7 512 13 1440 30 413 8 635 21 855 50 168 22 493 -9 555 -53 35 -25 64
-76 70 -126 7 -52 -9 -219 -23 -240 -4 -6 -7 -24 -8 -41 -1 -31 -11 -81 -38
-195 -9 -36 -20 -94 -26 -130 -6 -36 -17 -85 -25 -110 -7 -25 -21 -83 -30
-130 -8 -47 -24 -121 -34 -165 -19 -79 -26 -112 -75 -355 -14 -69 -32 -150
-40 -180 -9 -30 -23 -91 -31 -135 -8 -44 -20 -100 -25 -125 -6 -25 -13 -65
-16 -89 -2 -24 -11 -64 -19 -90 -9 -25 -27 -102 -40 -171 -35 -180 -50 -244
-80 -345 -15 -49 -31 -108 -35 -130 -20 -96 -59 -223 -71 -230 -5 -4 -9 -16
-9 -29 0 -56 -8 -57 -377 -56 -186 1 -347 2 -358 2 -18 1 -97 -3 -325 -17 -36
-2 -117 -9 -180 -15 -63 -7 -144 -14 -180 -16 -36 -3 -81 -9 -100 -13 -19 -5
-69 -9 -110 -10 -41 -2 -77 -4 -81 -6 -3 -2 -95 -7 -205 -10 -109 -3 -228 -10
-264 -15 -65 -9 -150 -15 -355 -25 -60 -3 -153 -11 -205 -17 -52 -6 -104 -10
-115 -10 -11 0 -60 -4 -110 -9 -49 -6 -117 -12 -150 -15 -173 -13 -301 -28
-398 -45 -137 -25 -330 -50 -407 -52 -104 -3 -315 8 -385 20 -44 7 -109 15
-145 18 -96 7 -248 25 -305 35 -54 10 -197 27 -285 34 -30 3 -118 16 -195 31
-77 15 -160 29 -185 32 -25 3 -49 9 -55 13 -5 4 -32 13 -60 20 -64 17 -145 59
-153 78 -8 21 34 52 69 52 16 0 64 9 107 20 83 21 135 27 307 36 61 3 126 9
146 14 20 6 85 12 144 15 59 3 111 7 114 10 4 2 72 6 151 10 80 3 206 11 280
17 74 6 164 12 200 12 183 4 198 6 221 25 19 15 21 21 11 34 -7 8 -12 19 -11
23 4 26 -4 42 -25 52 -27 12 -239 7 -326 -8 -113 -19 -245 -16 -243 6 1 10 8
23 15 28 22 13 3 184 -24 213 -18 19 -19 26 -9 73 9 41 8 62 -4 103 -8 29 -17
72 -19 97 -8 77 -62 304 -82 340 -7 14 -29 60 -48 103 -19 43 -51 104 -70 135
-19 31 -46 80 -62 107 -42 77 -48 85 -61 85 -25 0 -12 17 37 49 77 50 147 142
257 339 39 69 35 59 83 192 113 311 65 850 -98 1116 -115 187 -210 286 -358
372 -39 22 -76 48 -84 56 -7 9 -18 16 -25 16 -7 0 -18 7 -25 15 -7 8 -17 12
-22 9 -6 -4 -36 5 -67 19 -90 40 -279 84 -401 92 -30 3 -97 10 -148 16 -91 11
-187 9 -377 -10 -125 -13 -248 -31 -270 -41 -11 -5 -36 -11 -56 -13 -35 -5
-98 -27 -239 -85 -191 -77 -400 -260 -512 -446 -50 -85 -80 -148 -103 -217
-15 -46 -34 -100 -43 -119 -9 -19 -17 -48 -19 -65 -2 -16 -10 -56 -18 -88 -10
-40 -12 -63 -5 -75 7 -12 7 -32 -2 -67 -21 -81 1 -302 52 -535 25 -112 22
-191 -13 -296 -34 -104 -13 -96 -233 -91 -230 6 -230 6 -227 -77 1 -31 -2 -58
-6 -60 -5 -3 -4 -29 1 -58 5 -29 8 -121 8 -205 0 -92 4 -154 10 -158 15 -9 12
-28 -3 -22 -15 6 -80 -48 -106 -87 -9 -13 -32 -48 -52 -77 -20 -30 -42 -70
-49 -89 -7 -19 -21 -54 -31 -77 -29 -65 -39 -118 -45 -243 -6 -113 -5 -116 25
-187 17 -40 31 -80 31 -90 1 -49 128 -145 263 -197 37 -15 37 -15 37 -98 1
-89 20 -199 39 -222 30 -36 650 -56 996 -32 72 5 169 9 216 10 116 1 151 25
148 101 -1 28 1 66 4 85 23 137 29 795 8 1030 -6 69 -13 158 -16 198 -3 41 -7
78 -10 83 -3 4 -10 61 -16 126 -21 250 -29 285 -72 317 -49 36 -108 45 -227
37 -168 -12 -182 -9 -278 71 -178 149 -242 277 -273 548 -20 182 2 334 66 446
94 162 167 241 269 290 17 8 44 22 60 30 45 25 136 11 136 -21 0 -13 5 -27 10
-30 6 -3 10 -14 10 -24 0 -10 7 -24 15 -31 8 -7 15 -23 15 -36 0 -26 56 -124
71 -124 5 0 14 -11 19 -25 5 -14 14 -31 20 -38 48 -58 60 -77 60 -90 0 -8 7
-17 15 -21 8 -3 15 -11 15 -18 0 -7 14 -27 30 -45 43 -45 42 -47 -82 -174 -62
-63 -128 -133 -146 -154 -83 -101 -141 -252 -113 -297 6 -10 9 -22 7 -27 -6
-9 30 -43 63 -60 82 -45 607 -12 666 40 5 5 17 9 27 9 20 0 90 41 126 74 64
58 86 180 47 261 -19 39 -109 140 -214 241 -55 52 -55 52 -21 83 19 17 40 31
46 31 6 0 20 12 29 27 10 15 46 57 80 93 33 36 81 94 105 130 24 35 55 75 69
87 14 13 31 27 36 32 6 5 23 25 39 45 22 27 32 33 42 25 7 -6 19 -7 26 -3 7 4
31 11 55 14 42 7 43 6 49 -27 9 -50 67 -65 130 -33 37 18 57 21 99 17 52 -5
135 -40 135 -56 0 -5 27 -35 60 -67 66 -64 122 -147 149 -222 9 -26 37 -85 61
-132 44 -85 44 -85 44 -200 1 -164 -9 -207 -73 -320 -11 -19 -31 -60 -45 -90
-54 -114 -130 -208 -241 -299 -32 -26 -105 -117 -105 -131 0 -35 23 -41 101
-29 41 6 82 15 91 20 25 12 75 -66 128 -201 22 -55 37 -205 21 -214 -10 -7
-71 83 -71 105 0 62 -103 152 -194 171 -59 11 -59 11 -87 -20 -25 -28 -27 -34
-18 -69 28 -104 54 -181 71 -205 10 -14 18 -29 18 -33 0 -3 11 -21 24 -38 13
-18 27 -50 31 -72 9 -49 8 -312 -1 -327 -4 -6 -11 -63 -15 -127 -5 -64 -11
-127 -14 -141 -3 -14 -8 -40 -11 -58 -9 -45 -33 -57 -139 -72 -49 -6 -108 -16
-130 -21 -22 -5 -60 -11 -85 -13 -25 -1 -52 -5 -60 -8 -8 -3 -40 -13 -70 -23
-68 -23 -127 -59 -134 -82 -18 -62 -17 -95 3 -137 38 -83 135 -155 206 -156
17 0 35 -4 40 -9 6 -6 33 -12 61 -15 29 -3 92 -16 140 -30 77 -21 240 -49 354
-61 19 -2 103 -13 185 -24 83 -12 191 -26 240 -31 50 -6 113 -13 140 -16 79
-10 914 -14 970 -4 45 7 269 23 320 22 11 0 70 6 130 14 100 13 231 24 295 26
14 0 57 4 95 9 84 10 164 16 345 25 74 3 155 8 180 9 25 2 92 6 150 10 58 3
121 7 140 9 19 2 78 7 130 10 52 4 127 11 165 17 39 5 97 11 130 13 33 2 85 7
115 10 143 15 336 28 560 37 288 13 320 15 425 29 44 5 112 14 150 19 190 24
233 48 265 146 7 22 19 54 26 70 40 95 95 248 108 300 8 33 22 85 31 115 9 30
21 78 25 105 5 28 13 64 19 80 6 17 15 57 20 90 8 56 36 190 81 385 11 47 27
119 35 160 8 41 26 127 40 190 14 63 31 139 36 169 5 29 14 62 19 72 6 10 12
37 14 61 3 24 17 99 31 168 57 268 65 308 80 400 14 88 27 160 41 220 13 61
33 242 33 309 0 153 -93 255 -274 300 -27 7 -68 18 -90 24 -47 14 -530 15
-895 2 -129 -4 -271 -9 -315 -10 -44 -2 -154 -8 -245 -14 -91 -6 -284 -14
-430 -17 -146 -4 -305 -8 -355 -9 -444 -11 -600 -16 -722 -21 -148 -6 -161 -3
-122 32 27 24 22 77 -16 185 -14 41 -32 103 -40 138 -9 35 -22 75 -30 90 -7
14 -21 44 -30 66 -9 22 -23 55 -31 73 -8 18 -14 42 -14 53 0 34 -19 59 -45 59
-48 0 -66 31 -96 172 -16 74 -7 175 18 199 10 10 68 42 128 72 61 30 152 81
202 113 51 33 111 70 134 84 36 22 199 177 295 282 77 85 134 165 235 332 41
69 41 69 99 63 44 -5 61 -3 70 8 9 11 34 15 88 15 85 0 162 30 239 91 23 19
63 50 88 69 25 19 45 38 45 41 0 3 9 17 21 30 33 38 79 107 79 118 0 6 4 19
10 29 5 9 16 40 24 67 8 28 23 73 34 100 23 58 40 129 47 200 6 64 7 324 1
333 -3 5 -7 39 -11 77 -4 39 -13 102 -22 140 -8 39 -21 101 -29 139 -54 266
-227 572 -394 697 -113 85 -167 102 -234 74 -37 -16 -37 -16 -61 40 -14 31
-25 58 -25 61 0 10 -33 78 -45 94 -6 8 -18 31 -25 50 -8 19 -25 53 -39 75 -47
74 -51 80 -57 98 -3 9 -10 17 -15 17 -5 0 -9 6 -9 13 0 12 -41 80 -156 257
-112 173 -433 531 -564 628 -19 15 -62 51 -95 80 -33 30 -69 58 -81 62 -11 4
-33 19 -50 33 -16 13 -51 36 -79 52 -27 15 -56 32 -64 39 -31 25 -355 186
-426 211 -27 10 -54 22 -60 27 -5 4 -18 8 -30 8 -11 0 -52 12 -90 26 -101 37
-202 69 -265 84 -30 7 -64 16 -75 21 -22 10 -87 24 -180 39 -97 16 -488 10
-565 -7z m595 -189 c72 -13 146 -32 166 -40 20 -9 49 -17 65 -19 27 -3 85 -20
159 -47 62 -22 113 -38 200 -64 50 -15 97 -33 105 -40 9 -7 36 -23 60 -34 25
-12 72 -36 105 -54 33 -19 76 -42 95 -52 83 -45 167 -100 193 -126 16 -15 34
-28 41 -28 11 0 119 -86 191 -153 17 -15 59 -53 94 -85 35 -31 98 -97 139
-147 41 -49 83 -96 93 -103 20 -14 210 -265 244 -323 83 -140 136 -241 196
-374 17 -38 38 -82 46 -97 28 -57 -13 -29 -68 45 -106 144 -337 343 -538 464
-58 35 -107 63 -110 63 -3 0 -46 20 -96 44 -358 174 -886 270 -1249 226 -45
-5 -119 -12 -166 -15 -92 -7 -274 -36 -373 -61 -34 -8 -81 -19 -104 -24 -110
-23 -314 -107 -459 -188 -28 -16 -64 -34 -80 -40 -148 -58 -380 -252 -542
-452 -34 -41 -72 -89 -85 -105 -85 -105 -242 -397 -288 -537 -26 -80 -28 -81
-52 -24 -10 25 -30 57 -44 72 -24 26 -25 31 -15 73 6 27 7 64 2 89 -18 103 68
488 150 667 10 22 40 87 66 145 49 109 173 321 233 400 19 25 42 63 52 86 10
22 27 51 38 65 10 13 46 65 79 115 89 132 295 360 416 458 264 215 649 297
1041 220z m-130 -1120 c9 -4 24 -23 35 -44 21 -42 87 -139 126 -188 35 -43 33
-44 -71 -30 -146 19 -501 -22 -550 -62 -39 -32 -45 -69 -19 -107 13 -20 22
-38 20 -41 -9 -8 -76 71 -76 89 0 24 -77 117 -115 138 -16 9 -32 17 -34 18
-10 6 20 53 34 53 8 0 46 14 83 31 109 50 210 88 245 94 17 2 77 15 132 28
103 25 162 32 190 21z m3018 -1348 c70 -179 114 -502 95 -701 -16 -180 -39
-298 -53 -283 -2 2 3 76 11 164 23 233 12 396 -40 616 -8 35 -17 74 -20 88 -5
25 -23 93 -49 185 -31 110 -30 103 -10 76 10 -13 39 -79 66 -145z m-134 -1307
c-7 -14 -14 -18 -21 -11 -13 13 -2 32 18 32 12 0 13 -4 3 -21z m-4494 -1747
c-6 -5 -30 -14 -55 -21 -25 -7 -68 -28 -96 -47 -42 -27 -57 -32 -87 -27 -51 8
-95 -12 -99 -45 -3 -25 -7 -27 -68 -33 -97 -8 -178 -55 -164 -94 6 -14 -53
-38 -83 -34 -10 1 -29 -3 -43 -9 -34 -15 -241 -55 -248 -48 -11 11 62 77 147
133 184 122 426 207 631 223 140 11 175 11 165 2z m-158 -1267 c19 -8 42 -15
49 -15 38 0 153 -112 179 -173 40 -96 -73 -158 -315 -172 -274 -16 -340 -17
-340 -6 0 52 143 207 295 321 90 68 83 65 132 45z m-971 -637 c3 -11 24 -27
47 -37 41 -18 41 -18 -65 -18 -98 0 -105 2 -88 16 12 10 21 34 24 66 2 28 5
51 5 53 3 8 72 -64 77 -80z m182 -212 c223 -2 398 -8 403 -13 11 -11 35 -157
44 -273 3 -47 8 -103 10 -125 3 -22 9 -104 15 -182 5 -78 13 -174 18 -215 14
-138 7 -589 -12 -768 -2 -14 -4 -39 -4 -56 -1 -20 -9 -35 -19 -39 -31 -14
-206 -32 -273 -29 -36 2 -119 2 -185 1 -177 -3 -597 2 -621 8 -19 4 -21 12
-22 112 0 60 -2 115 -4 122 -2 8 17 24 45 39 50 26 47 21 79 152 16 66 -10
128 -62 150 -52 22 -55 35 -15 67 63 50 108 181 86 255 -20 67 -78 118 -135
118 -33 0 -40 13 -41 80 0 30 -4 60 -8 67 -4 6 -7 24 -6 40 1 15 -2 135 -6
266 l-8 239 164 -7 c90 -3 341 -8 557 -9z"/>
<path d="M1202 1938 c-6 -6 -12 -20 -12 -29 0 -10 -6 -19 -12 -21 -22 -8 20
-40 55 -43 115 -12 465 -26 527 -22 100 7 110 12 110 52 0 31 -3 34 -37 39
-173 27 -611 44 -631 24z"/>
<path d="M1248 1655 c-52 -17 -67 -54 -30 -73 20 -11 246 -30 459 -38 145 -6
152 -5 172 15 62 62 -62 96 -385 106 -136 4 -178 2 -216 -10z"/>
<path d="M1316 1371 c-75 -11 -99 -72 -33 -85 41 -9 452 -15 516 -8 109 12
110 63 1 81 -70 12 -420 20 -484 12z"/>
<path d="M1755 1098 c-173 -181 -225 -215 -244 -165 -18 44 -77 97 -109 97
-40 0 -69 -36 -48 -59 7 -9 28 -43 45 -76 18 -33 38 -65 44 -70 7 -6 17 -19
23 -30 15 -27 80 -57 107 -49 43 14 343 331 352 373 9 41 -18 90 -51 91 -6 0
-59 -51 -119 -112z"/>
<path d="M8559 8839 c-238 -13 -477 -78 -654 -176 -163 -91 -214 -134 -328
-273 -46 -56 -127 -214 -127 -247 0 -10 -7 -40 -16 -68 -52 -171 41 -561 163
-683 7 -7 13 -17 13 -22 0 -9 90 -111 184 -209 108 -112 258 -213 379 -254 71
-25 -41 -355 -174 -511 -60 -71 -61 -92 -1 -124 49 -27 149 -18 202 18 14 9
61 36 105 60 140 77 327 289 401 456 18 40 29 54 45 54 11 0 28 4 37 9 10 5
42 12 72 15 30 2 80 14 110 26 30 12 71 27 91 35 278 103 500 333 606 630 76
211 55 653 -39 793 -15 24 -37 60 -47 80 -19 37 -155 182 -171 182 -4 0 -30
18 -56 40 -27 22 -53 40 -59 40 -5 0 -48 16 -95 36 -131 55 -401 111 -490 103
-8 -1 -76 -5 -151 -10z m256 -148 c114 -14 192 -30 230 -46 17 -7 52 -20 78
-29 174 -58 364 -247 407 -405 46 -173 46 -421 0 -557 -11 -31 -18 -60 -15
-64 7 -11 -51 -124 -104 -204 -85 -125 -327 -296 -420 -296 -14 0 -39 -9 -56
-20 -16 -11 -40 -20 -52 -20 -12 0 -48 -11 -79 -25 -31 -14 -69 -25 -84 -25
-42 0 -80 -37 -115 -114 -71 -155 -185 -295 -321 -398 -94 -71 -130 -87 -96
-43 63 80 135 311 135 432 1 112 -4 118 -117 172 -217 102 -482 384 -571 606
-150 375 -6 706 398 914 65 34 126 61 136 61 10 0 37 6 62 14 103 33 412 71
479 60 8 -1 56 -7 105 -13z"/>
<path d="M8815 8274 c-99 -7 -261 -15 -360 -18 -99 -4 -223 -11 -275 -16 -52
-5 -124 -12 -160 -15 -107 -10 -157 -78 -86 -117 20 -11 270 -13 356 -3 19 2
82 7 140 10 58 3 164 10 235 15 72 5 207 14 300 20 190 13 219 21 223 66 7 70
-52 79 -373 58z"/>
<path d="M8545 7918 c-127 -9 -382 -29 -415 -33 -14 -1 -55 -6 -93 -10 -155
-16 -173 -124 -20 -125 129 0 784 54 875 72 74 15 95 73 35 95 -27 10 -247 10
-382 1z"/>
<path d="M9120 7643 c-371 -25 -698 -55 -850 -78 -84 -12 -97 -17 -117 -42
-68 -84 19 -105 317 -73 58 6 202 20 320 31 445 41 481 50 462 121 -4 18 -60
51 -79 46 -4 -1 -28 -3 -53 -5z"/>
<path d="M3768 7076 c-84 -63 -78 -461 8 -597 39 -62 117 -83 152 -40 59 73
51 226 -30 536 -28 106 -75 143 -130 101z"/>
<path d="M5235 5778 c-137 -141 -267 -208 -475 -246 -89 -17 -289 -1 -384 29
-32 11 -66 19 -75 19 -53 1 -264 150 -286 203 -14 35 -17 37 -60 37 -56 0 -89
-41 -82 -101 9 -71 134 -216 221 -257 121 -56 194 -83 243 -88 32 -4 63 -11
70 -16 7 -5 16 -7 21 -4 4 2 26 0 48 -5 99 -24 337 -5 484 39 153 46 347 191
397 296 13 28 30 62 39 76 25 43 -6 110 -50 110 -14 0 -54 -33 -111 -92z"/>
<path d="M5284 4656 c-95 -42 -60 -254 37 -226 75 22 97 162 34 218 -30 26
-30 26 -71 8z"/>
<path d="M4377 4482 c-10 -10 -17 -26 -17 -35 0 -10 -10 -38 -22 -63 -23 -50
-18 -76 18 -83 48 -9 124 72 124 133 0 55 -69 86 -103 48z"/>
<path d="M1716 3473 c-50 -8 -122 -93 -145 -170 -42 -140 36 -303 144 -303
166 0 265 145 221 321 -31 124 -101 172 -220 152z"/>
<path d="M3266 3392 c-89 -49 -120 -133 -107 -286 9 -95 151 -205 233 -181
210 63 225 383 23 476 -55 25 -92 23 -149 -9z"/>
<path d="M7115 2719 c-27 -4 -88 -12 -135 -17 -544 -66 -849 -557 -632 -1014
39 -81 40 -65 -9 -173 -83 -182 -91 -202 -87 -226 11 -78 249 -31 395 77 17
13 35 24 39 24 4 0 32 12 62 26 52 25 59 26 126 16 39 -6 82 -11 96 -11 14 0
65 0 115 -1 495 -5 833 263 852 674 20 423 -334 692 -822 625z m265 -135 c192
-21 298 -94 377 -259 54 -114 57 -308 6 -417 -85 -181 -230 -288 -453 -336
-105 -23 -433 -29 -458 -9 -27 22 -116 -3 -258 -73 -168 -83 -192 -87 -151
-25 62 92 68 184 22 283 -168 354 58 734 490 821 147 30 257 34 425 15z"/>
<path d="M7399 2403 c-16 -19 -55 -194 -63 -278 -2 -27 -12 -110 -21 -183 -20
-149 -15 -176 32 -185 51 -10 70 22 87 148 16 110 23 158 31 205 29 161 34
256 16 280 -22 31 -62 37 -82 13z"/>
<path d="M6913 2358 c-14 -16 -23 -43 -28 -88 -4 -36 -12 -92 -19 -125 -28
-135 -28 -278 0 -305 25 -26 68 -19 89 14 34 51 64 498 35 516 -25 16 -55 11
-77 -12z"/>
<path d="M7158 2333 c-20 -24 -24 -41 -48 -228 -11 -88 -24 -189 -30 -225 -19
-126 -8 -160 49 -160 50 0 55 17 91 308 27 216 30 299 10 312 -23 15 -55 12
-72 -7z"/>
<path d="M6702 2217 c-49 -53 -72 -246 -33 -282 29 -25 69 -3 87 47 17 51 27
193 14 217 -19 36 -45 43 -68 18z"/>
<path d="M7582 2185 c-36 -45 -39 -238 -4 -258 61 -37 119 180 69 257 -22 33
-40 33 -65 1z"/>
<path d="M3203 602 c-43 -4 -45 -32 -4 -32 17 0 59 -7 96 -15 124 -29 360 -64
540 -81 28 -2 77 -9 110 -14 102 -16 139 -19 308 -26 163 -6 164 -6 180 17 25
35 7 45 -101 58 -53 7 -113 16 -132 21 -36 9 -226 25 -270 22 -14 -1 -56 5
-95 13 -38 7 -101 16 -140 19 -193 15 -439 25 -492 18z"/>
</g>
</svg>
