<?xml version="1.0" standalone="no"?>
<!DOCTYPE svg PUBLIC "-//W3C//DTD SVG 20010904//EN"
 "http://www.w3.org/TR/2001/REC-SVG-20010904/DTD/svg10.dtd">
<svg version="1.0" xmlns="http://www.w3.org/2000/svg"
 width="1024.000000pt" height="1024.000000pt" viewBox="0 0 1024.000000 1024.000000"
 preserveAspectRatio="xMidYMid meet">
<metadata>
Created by potrace 1.16, written by Peter Selinger 2001-2019
</metadata>
<g transform="translate(0.000000,1024.000000) scale(0.100000,-0.100000)"
fill="#ffffff" stroke="none">
<path d="M4405 9619 c-22 -4 -59 -8 -82 -8 -92 -2 -298 -64 -398 -120 -30 -17
-61 -31 -69 -31 -8 0 -16 -7 -19 -15 -4 -8 -23 -23 -45 -34 -21 -11 -52 -32
-69 -48 -17 -15 -59 -53 -94 -83 -100 -88 -190 -183 -223 -235 -10 -16 -42
-57 -71 -90 -54 -62 -188 -253 -221 -315 -11 -19 -29 -49 -41 -67 -13 -17 -23
-34 -23 -38 0 -4 -22 -44 -48 -89 -26 -44 -53 -92 -59 -106 -33 -71 -63 -145
-97 -235 -21 -55 -42 -107 -46 -116 -15 -28 -58 -222 -65 -291 -12 -117 -14
-132 -14 -173 -1 -40 -1 -40 -77 -69 -43 -16 -98 -46 -127 -70 -56 -46 -177
-184 -177 -202 0 -7 -9 -31 -20 -55 -39 -86 -20 -199 34 -199 23 0 -12 -20
-49 -28 -51 -10 -71 -44 -80 -137 -13 -124 -9 -316 7 -385 4 -19 11 -57 14
-85 3 -27 10 -55 15 -61 5 -6 12 -31 15 -55 4 -24 10 -52 15 -61 6 -10 7 -18
3 -18 -3 0 -2 -6 3 -12 6 -7 16 -35 23 -63 19 -72 77 -175 116 -208 19 -16 34
-34 34 -40 0 -7 7 -25 16 -42 9 -16 23 -41 30 -55 7 -14 39 -38 73 -55 39 -20
61 -36 61 -47 0 -10 6 -18 14 -18 8 0 16 -5 18 -11 10 -30 133 -17 209 21 16
9 59 -20 59 -39 0 -11 84 -136 124 -184 47 -58 96 -106 177 -172 109 -90 139
-121 139 -143 0 -12 5 -24 10 -27 6 -3 10 -13 10 -21 0 -8 5 -20 11 -27 5 -7
18 -26 29 -43 10 -17 51 -54 92 -82 40 -28 78 -56 85 -61 6 -6 42 -26 80 -45
37 -18 106 -56 152 -85 46 -28 92 -51 103 -51 10 0 18 -4 18 -10 0 -5 3 -9 8
-8 4 0 14 -1 22 -5 73 -28 237 -67 245 -58 4 3 63 7 132 8 75 2 131 7 139 14
21 17 17 48 -8 59 -32 13 -178 43 -205 41 -13 0 -23 4 -23 10 0 6 -9 8 -19 4
-14 -4 -23 0 -31 15 -6 12 -14 19 -17 17 -3 -3 -22 1 -43 8 -21 7 -40 11 -43
9 -2 -2 -16 2 -31 10 -40 20 -17 27 38 11 25 -8 72 -16 104 -19 31 -2 118 -13
192 -25 242 -38 347 -21 310 49 -11 20 -38 26 -180 35 -133 9 -190 17 -184 27
10 17 -17 36 -59 43 -207 31 -512 135 -562 191 -5 6 -21 14 -35 18 -14 3 -36
15 -50 26 -55 44 -157 111 -198 131 -23 11 -61 38 -84 60 -23 21 -45 39 -49
39 -21 0 -233 226 -224 239 2 5 -4 48 -15 97 -25 116 -37 229 -23 221 6 -4 14
-19 18 -34 24 -100 243 -373 299 -373 10 0 34 16 53 36 42 45 41 48 -41 282
-14 41 -28 93 -30 117 -3 24 -9 52 -14 62 -11 20 -36 229 -34 280 1 18 -4 36
-11 40 -28 17 -49 264 -46 551 3 358 3 372 15 372 21 0 41 100 30 144 -9 37
-71 72 -102 57 -23 -10 -51 -59 -60 -104 -2 -11 -8 -34 -13 -51 -9 -29 -23
-233 -23 -340 -1 -39 -4 -50 -19 -53 -11 -3 -22 -17 -26 -31 -8 -33 3 -283 15
-347 6 -27 16 -81 22 -120 7 -38 22 -89 33 -114 10 -24 23 -78 29 -120 5 -42
18 -109 29 -149 11 -40 18 -78 16 -85 -6 -19 -43 62 -62 138 -29 118 -64 165
-122 165 -13 0 -15 12 -8 88 4 48 7 128 7 177 0 50 0 113 0 140 1 67 1 68 -8
241 -7 148 -6 154 25 281 60 246 206 522 370 703 28 30 50 58 51 61 1 23 327
279 354 279 6 0 -6 -17 -26 -37 -55 -57 -151 -239 -168 -319 -17 -82 -33 -124
-46 -124 -27 0 -106 -41 -130 -67 -94 -102 -95 -277 -1 -396 40 -51 64 -60
103 -38 30 18 30 18 49 -47 24 -86 62 -127 115 -127 60 0 94 37 84 90 -4 22
-8 69 -9 105 -2 36 -7 82 -13 103 -7 25 -8 47 -1 64 5 13 9 66 9 116 1 51 5
112 11 137 5 25 11 59 13 76 7 52 52 170 85 219 17 25 31 50 31 55 0 4 6 10
13 13 14 5 47 -45 47 -73 0 -11 12 -38 26 -60 14 -21 23 -43 20 -49 -3 -5 -3
-11 1 -13 8 -3 85 -115 92 -133 9 -22 64 -63 93 -69 18 -3 39 -12 47 -20 33
-28 59 -29 85 -2 13 14 30 26 39 26 35 0 19 117 -43 310 -37 114 -49 154 -46
158 2 1 110 5 240 8 299 7 318 2 360 -87 15 -32 31 -61 36 -64 5 -3 11 -19 15
-36 4 -17 19 -54 33 -83 34 -65 46 -96 71 -171 10 -33 35 -104 55 -158 19 -53
44 -145 55 -204 24 -124 43 -153 101 -153 84 0 103 44 74 168 -31 137 -47 197
-54 207 -3 6 -15 33 -25 60 -9 28 -32 82 -50 120 -18 39 -36 81 -40 95 -12 37
-89 196 -130 265 -47 81 -43 90 11 30 62 -68 116 -149 143 -215 27 -65 181
-360 200 -384 10 -13 89 -160 178 -333 62 -121 62 -121 22 -147 -21 -15 -39
-33 -39 -41 0 -8 -4 -15 -9 -15 -50 0 -35 -447 16 -485 49 -37 124 -20 144 33
19 49 17 188 -5 365 -4 35 6 51 17 25 3 -7 21 -22 41 -32 73 -39 90 30 37 154
-11 25 -36 86 -56 135 -21 50 -45 104 -55 120 -10 17 -39 73 -65 125 -27 52
-63 118 -81 145 -38 58 -104 183 -104 197 0 5 -18 40 -39 77 -22 37 -47 87
-57 112 -10 24 -25 55 -34 69 -9 14 -20 41 -24 60 -6 34 -6 34 29 0 19 -19 35
-39 35 -46 0 -7 14 -24 32 -39 17 -15 56 -57 86 -93 29 -37 62 -76 73 -87 30
-32 141 -167 177 -215 18 -25 60 -83 95 -129 34 -46 72 -98 85 -115 13 -17 41
-68 62 -113 42 -89 72 -123 105 -123 23 0 51 25 56 50 7 36 -55 256 -103 370
-9 19 -23 58 -33 85 -9 28 -32 94 -52 148 -19 54 -32 105 -29 112 3 8 -1 20
-7 27 -16 16 -29 48 -19 48 11 0 91 -93 98 -113 3 -10 25 -51 48 -90 23 -40
63 -116 90 -170 27 -54 53 -100 57 -103 5 -3 9 -12 9 -21 0 -8 27 -74 59 -146
32 -73 64 -152 71 -177 7 -25 17 -51 22 -57 6 -7 8 -13 5 -13 -2 0 6 -37 20
-82 14 -46 25 -89 26 -97 0 -7 15 -27 32 -44 30 -28 32 -33 23 -66 -12 -45
-28 -63 -28 -32 0 20 -3 22 -27 16 -36 -9 -45 -23 -38 -59 3 -16 0 -35 -6 -43
-8 -9 -9 -31 -4 -66 15 -100 22 -318 11 -335 -2 -4 -7 -68 -10 -142 -3 -74
-11 -162 -17 -195 -20 -113 11 -185 81 -185 32 0 77 38 84 72 33 143 51 318
57 529 2 60 14 96 23 69 2 -8 7 -58 10 -110 3 -52 10 -96 16 -98 5 -2 10 -11
10 -19 0 -20 54 -11 90 16 22 16 25 27 28 87 5 116 -77 457 -115 483 -5 3 -12
14 -16 23 -7 19 -67 54 -67 39 0 -5 -11 -11 -25 -13 -32 -7 -32 5 -1 20 48 22
40 150 -21 317 -14 39 -26 79 -26 90 0 11 -3 22 -6 25 -13 11 -39 68 -56 120
-44 140 -198 419 -332 602 -181 247 -230 298 -288 298 -61 0 -77 -86 -25 -135
36 -34 37 -43 8 -47 -41 -6 -41 -49 2 -182 64 -200 66 -200 -71 -26 -32 41
-76 96 -96 121 -21 25 -82 100 -135 166 -100 123 -147 163 -213 182 -71 19
-84 -9 -59 -129 8 -39 12 -43 -116 81 -83 80 -191 169 -205 169 -24 0 -37 27
-18 36 27 12 339 15 408 3 33 -5 105 -16 160 -25 107 -17 260 -57 374 -98 126
-46 386 -184 406 -216 4 -6 24 -22 45 -35 52 -33 206 -187 260 -260 24 -33 61
-80 81 -105 36 -44 59 -80 98 -150 10 -19 28 -44 40 -54 12 -11 21 -26 21 -34
0 -9 7 -23 16 -33 8 -9 16 -27 18 -40 2 -13 15 -50 30 -82 25 -54 26 -60 11
-71 -20 -14 -18 -64 9 -189 45 -217 65 -552 41 -697 -17 -104 -43 -223 -56
-257 -5 -13 -7 -29 -3 -34 3 -5 1 -9 -5 -9 -5 0 -11 -14 -13 -32 -2 -25 -12
-39 -43 -59 -22 -15 -40 -33 -41 -41 -3 -77 -65 -202 -159 -323 -58 -74 -87
-104 -251 -255 -50 -47 -140 -111 -256 -183 -52 -32 -204 -109 -253 -128 -27
-11 -59 -24 -70 -29 -76 -33 -348 -110 -393 -110 -30 0 -48 -27 -34 -51 7 -10
12 -23 12 -29 0 -27 37 -51 63 -41 15 6 57 15 94 22 88 14 250 57 286 75 15 8
27 11 28 7 0 -5 0 -30 -1 -58 -2 -76 39 -260 71 -323 16 -30 29 -61 29 -69 0
-19 59 -163 75 -183 7 -8 24 -57 38 -108 29 -102 54 -162 69 -162 5 0 7 -4 4
-9 -3 -4 -40 -11 -83 -15 -108 -10 -185 -30 -259 -67 -68 -33 -150 -113 -160
-155 -3 -13 -9 -24 -13 -24 -20 0 -52 -117 -96 -350 -4 -19 -11 -55 -16 -80
-22 -99 -30 -139 -43 -220 -22 -127 -34 -189 -46 -250 -7 -30 -16 -75 -21
-100 -15 -74 -19 -80 -45 -80 -30 0 -47 -17 -169 -166 -49 -60 -113 -134 -141
-164 -29 -30 -72 -77 -95 -105 -24 -27 -71 -75 -104 -105 -238 -217 -282 -277
-219 -300 65 -25 137 27 403 291 139 139 263 291 303 374 29 58 38 71 33 45
-24 -136 -36 -207 -37 -220 0 -8 -4 -19 -7 -25 -4 -5 -8 -26 -10 -45 -1 -19
-9 -64 -17 -100 -8 -36 -17 -83 -20 -105 -12 -93 -30 -150 -50 -154 -10 -2
-21 -7 -24 -11 -3 -4 -41 -32 -85 -62 -44 -30 -109 -75 -145 -100 -36 -25
-119 -71 -185 -103 -66 -32 -130 -68 -142 -79 -24 -21 -32 -71 -10 -63 6 2 19
1 28 -4 10 -5 50 -3 96 5 193 34 372 147 461 290 12 19 12 18 8 -14 -12 -98
-37 -230 -50 -267 -8 -23 -12 -44 -9 -46 3 -3 1 -12 -3 -19 -4 -7 -9 -19 -10
-28 -5 -43 -35 -233 -44 -285 -14 -75 -7 -101 30 -120 38 -20 68 18 76 97 3
29 10 71 16 93 5 22 12 51 15 65 2 14 13 70 25 125 11 55 24 132 29 170 5 39
14 81 19 95 6 14 12 45 15 70 3 25 12 72 19 105 8 33 22 112 31 175 9 63 21
132 26 152 14 53 53 279 65 366 3 24 9 55 15 69 5 13 7 28 5 32 -5 7 4 51 44
231 11 47 22 108 25 135 3 28 10 64 15 80 5 17 14 64 20 105 7 41 23 127 37
190 14 63 29 141 34 172 20 132 81 257 147 300 36 24 161 71 178 67 5 -2 56 1
114 4 58 4 220 9 360 12 140 3 354 7 475 10 248 6 521 12 895 19 354 7 531 14
630 26 396 46 644 28 725 -53 42 -42 50 -103 29 -217 -8 -47 -17 -99 -19 -117
-3 -17 -10 -53 -16 -80 -6 -26 -21 -102 -33 -168 -12 -66 -28 -136 -34 -155
-10 -32 -46 -196 -72 -325 -29 -143 -81 -391 -99 -470 -11 -49 -26 -115 -32
-145 -6 -30 -14 -62 -17 -70 -3 -8 -4 -20 -3 -27 1 -7 -6 -41 -15 -75 -9 -35
-27 -115 -39 -178 -30 -147 -47 -216 -74 -315 -13 -44 -25 -91 -27 -105 -3
-14 -8 -34 -11 -45 -4 -11 -8 -27 -9 -35 -7 -38 -62 -183 -75 -195 -15 -14
-198 -19 -592 -16 -109 1 -201 -1 -206 -3 -5 -3 -33 -6 -62 -7 -30 0 -99 -5
-154 -9 -55 -5 -134 -12 -175 -16 -41 -3 -77 -7 -80 -9 -3 -2 -53 -6 -110 -10
-58 -3 -121 -8 -140 -10 -56 -8 -239 -17 -310 -16 -36 1 -87 -3 -115 -8 -27
-6 -131 -15 -230 -21 -222 -13 -318 -19 -370 -25 -100 -10 -135 -14 -215 -20
-173 -13 -273 -24 -360 -41 -102 -19 -317 -45 -390 -47 -115 -2 -289 7 -375
20 -55 8 -129 16 -165 19 -69 4 -183 18 -265 33 -27 5 -86 12 -130 15 -221 18
-545 89 -625 137 -55 34 -35 64 49 74 30 3 61 10 70 14 15 8 129 29 161 29 65
2 227 15 280 22 36 6 97 12 135 15 159 9 247 14 370 20 71 4 132 8 136 11 3 2
72 6 153 9 81 3 158 10 171 15 25 9 33 34 16 44 -5 3 -7 15 -4 25 9 34 -46 54
-117 43 -34 -5 -65 -5 -74 0 -9 5 -22 6 -29 1 -6 -4 -23 -9 -37 -9 -254 -19
-273 -19 -278 -5 -3 8 1 19 10 25 19 14 4 172 -19 198 -12 13 -14 31 -9 75 4
34 2 72 -5 93 -6 19 -13 55 -16 80 -2 25 -9 60 -15 78 -5 18 -12 47 -15 65
-18 121 -191 488 -255 541 -14 12 -19 20 -11 23 66 23 181 163 266 323 13 25
29 54 35 65 23 41 71 203 87 295 41 232 -6 583 -104 765 -11 22 -21 43 -21 47
0 4 -15 28 -32 52 -18 24 -51 70 -73 101 -43 61 -138 143 -236 203 -90 55 -93
56 -109 66 -8 6 -25 11 -38 12 -13 2 -30 8 -38 15 -20 16 -135 48 -217 59 -38
5 -72 12 -77 15 -5 3 -37 8 -72 11 -35 2 -95 9 -134 15 -162 23 -628 -37 -741
-96 -15 -8 -33 -15 -39 -15 -24 0 -153 -65 -228 -115 -118 -78 -259 -232 -316
-345 -12 -25 -28 -52 -35 -60 -12 -16 -36 -79 -60 -164 -8 -27 -19 -54 -24
-59 -6 -6 -11 -24 -11 -40 0 -16 -7 -53 -16 -83 -11 -38 -13 -59 -5 -67 7 -9
7 -25 0 -52 -18 -71 -4 -259 32 -423 33 -151 34 -206 9 -303 -34 -128 -12
-116 -219 -112 -218 4 -209 10 -206 -132 2 -49 3 -152 4 -227 0 -81 5 -139 11
-143 16 -10 12 -28 -5 -21 -8 3 -19 -2 -24 -12 -6 -9 -11 -13 -11 -8 0 11 -39
-29 -63 -64 -9 -14 -30 -44 -47 -68 -16 -23 -30 -47 -30 -52 0 -6 -4 -18 -9
-28 -9 -16 -23 -51 -25 -62 -1 -3 -4 -10 -8 -15 -41 -64 -48 -287 -12 -376 14
-35 28 -71 29 -81 10 -50 136 -144 224 -168 40 -10 41 -12 42 -55 6 -210 20
-248 96 -259 158 -22 571 -27 813 -10 113 8 224 13 247 11 34 -4 47 0 71 22
73 65 80 788 13 1421 -23 217 -32 263 -58 292 -20 23 -118 51 -152 43 -14 -3
-71 -6 -127 -7 -101 -1 -101 -1 -177 61 -168 137 -228 255 -258 510 -19 171 3
299 74 413 75 124 91 145 134 178 59 45 162 100 189 100 56 0 84 -12 84 -36 0
-13 5 -24 10 -24 6 0 10 -8 10 -17 0 -10 7 -26 15 -36 7 -11 11 -26 8 -34 -3
-8 -2 -18 4 -22 5 -3 19 -23 32 -43 12 -21 27 -38 32 -38 5 0 9 -6 9 -13 0
-12 10 -28 57 -87 12 -15 19 -30 15 -34 -4 -4 1 -12 11 -17 9 -6 17 -15 17
-20 0 -6 13 -24 30 -40 39 -39 37 -42 -109 -195 -64 -66 -123 -134 -131 -150
-8 -16 -18 -31 -21 -34 -13 -11 -39 -70 -48 -112 -13 -58 5 -113 47 -140 63
-39 459 -35 572 7 25 9 56 20 70 23 99 27 174 121 174 217 0 74 -26 116 -146
238 -59 61 -108 113 -108 115 0 9 55 52 68 52 6 0 12 6 12 13 0 6 26 37 56 67
31 30 80 89 109 130 29 41 68 89 87 106 18 16 45 45 60 62 16 20 28 27 30 20
4 -10 10 -10 32 0 48 22 86 16 86 -14 0 -43 61 -62 115 -35 87 44 152 24 253
-76 69 -69 142 -169 142 -197 0 -6 24 -58 52 -116 55 -112 68 -208 45 -340 -9
-54 -108 -260 -152 -315 -17 -22 -41 -56 -53 -75 -11 -19 -38 -48 -59 -65 -54
-42 -153 -147 -153 -161 0 -35 43 -39 155 -14 47 11 50 8 99 -90 52 -101 78
-226 59 -276 -7 -20 -57 55 -67 103 -15 68 -101 133 -193 146 -46 7 -87 -37
-74 -79 5 -16 14 -54 21 -84 7 -30 24 -72 37 -92 12 -21 23 -42 23 -47 0 -5 7
-14 15 -21 26 -22 37 -91 36 -228 0 -73 -3 -137 -6 -142 -3 -5 -8 -51 -10
-102 -11 -203 -31 -248 -112 -248 -24 0 -77 -7 -117 -15 -40 -8 -90 -17 -112
-18 -21 -2 -48 -7 -59 -11 -169 -61 -177 -68 -190 -138 -17 -91 100 -218 199
-218 14 0 28 -5 31 -10 3 -6 21 -10 38 -10 18 0 73 -11 124 -25 51 -13 114
-27 140 -29 26 -3 71 -10 98 -15 28 -6 75 -13 105 -16 30 -4 66 -8 80 -10 14
-3 66 -9 115 -14 50 -6 131 -15 180 -22 50 -6 106 -12 125 -14 19 -2 69 -8
110 -15 57 -9 300 -21 415 -21 42 1 165 10 185 14 14 4 64 8 112 11 48 2 90 6
95 9 4 3 64 8 133 11 69 4 177 11 240 17 157 15 174 16 260 23 41 4 95 9 120
11 56 6 134 12 270 20 208 12 267 15 410 25 187 14 245 18 300 25 45 5 75 8
260 25 52 4 192 13 310 19 400 21 661 45 770 71 70 16 108 55 137 141 12 35
35 97 52 138 17 40 40 106 50 145 11 39 27 96 36 126 9 30 18 66 21 80 2 14
11 54 19 90 7 36 21 101 30 145 9 44 28 132 42 195 14 63 29 135 34 160 4 25
11 59 14 75 3 17 12 55 20 85 8 30 17 73 21 95 4 22 8 42 9 45 1 3 7 32 14 65
7 33 18 78 26 100 7 22 13 49 13 60 0 11 4 40 10 65 14 64 71 345 83 408 5 28
14 78 19 110 57 312 63 430 24 502 -97 178 -278 206 -1149 177 -388 -14 -450
-16 -505 -22 -30 -3 -165 -8 -300 -11 -135 -3 -288 -7 -340 -9 -52 -2 -201 -6
-330 -9 -129 -3 -288 -9 -352 -12 -121 -5 -133 -2 -97 29 11 10 18 25 15 35
-2 9 -8 37 -11 62 -4 25 -11 50 -15 55 -9 11 -24 62 -46 149 -8 33 -19 65 -23
70 -12 15 -61 135 -66 163 -8 48 -17 63 -36 63 -47 0 -74 36 -84 110 -28 217
-25 224 125 290 30 13 92 48 137 77 44 29 86 53 92 53 6 0 11 5 11 10 0 6 6
10 14 10 75 0 413 377 537 599 24 43 24 43 73 37 32 -3 55 -1 64 6 8 7 46 13
86 14 79 3 149 31 209 84 19 16 39 30 45 30 13 0 117 116 143 160 18 29 70
166 90 240 6 19 14 49 19 65 32 110 25 414 -14 600 -43 201 -71 286 -151 450
-49 100 -131 207 -206 270 -100 83 -175 110 -234 83 -31 -14 -43 -1 -70 76
-10 28 -28 67 -40 86 -12 19 -26 46 -30 60 -4 14 -20 43 -34 65 -14 22 -31 49
-37 60 -56 100 -70 124 -89 150 -13 17 -32 48 -44 70 -41 74 -84 132 -227 304
-81 97 -247 266 -314 320 -25 19 -67 55 -93 78 -50 44 -144 110 -203 144 -19
10 -51 29 -71 41 -86 48 -291 151 -333 165 -25 8 -58 21 -75 27 -16 7 -48 18
-70 25 -22 7 -49 16 -60 21 -30 13 -245 77 -285 85 -19 4 -39 10 -44 13 -6 3
-19 7 -30 8 -12 1 -50 7 -86 13 -183 31 -244 35 -315 20z m224 -174 c24 -3 65
-10 90 -16 25 -6 64 -13 85 -15 22 -3 56 -12 75 -20 20 -9 47 -17 61 -19 14
-2 43 -11 65 -19 22 -8 48 -15 58 -16 10 0 36 -9 58 -21 22 -11 53 -22 68 -24
61 -7 261 -91 276 -115 3 -6 15 -10 26 -10 10 0 19 -4 19 -10 0 -5 5 -10 11
-10 16 0 210 -114 237 -139 12 -11 46 -36 75 -54 70 -45 337 -288 337 -306 0
-4 35 -43 78 -88 109 -114 215 -260 306 -421 80 -142 96 -172 91 -172 -3 0 15
-40 39 -88 54 -108 38 -121 -30 -26 -80 113 -329 336 -434 389 -19 9 -42 23
-50 30 -28 24 -235 124 -330 159 -471 175 -931 195 -1505 65 -136 -31 -225
-64 -392 -145 -83 -41 -155 -74 -161 -74 -5 0 -17 -9 -26 -19 -10 -11 -30 -22
-44 -26 -47 -11 -229 -162 -330 -272 -170 -186 -366 -506 -413 -673 -14 -49
-29 -74 -29 -47 0 9 -5 17 -10 17 -6 0 -9 3 -8 8 4 11 -40 82 -51 82 -5 0 -7
14 -4 33 4 17 5 64 4 102 -2 89 21 252 47 330 11 33 30 94 42 135 47 162 174
413 311 617 27 39 53 82 58 95 5 12 28 47 50 77 23 30 41 58 41 62 0 19 163
210 275 323 189 190 366 279 614 311 192 24 196 24 320 10z m43 -1095 c22 -36
58 -89 80 -118 23 -29 39 -54 37 -57 -3 -2 -40 1 -84 7 -73 10 -171 5 -335
-16 -153 -19 -227 -74 -180 -134 11 -13 20 -32 20 -41 -1 -10 -6 -6 -16 11 -8
15 -23 32 -34 38 -11 6 -20 21 -20 34 0 13 -7 29 -15 36 -8 7 -15 17 -15 22 0
13 -56 60 -88 74 -16 7 -21 14 -13 18 6 4 9 11 7 15 -6 9 253 119 309 131 22
5 78 18 125 29 149 34 175 28 222 -49z m2666 -1143 c73 -193 112 -538 81 -722
-21 -127 -31 -165 -41 -165 -6 0 -8 11 -4 28 29 136 30 416 1 552 -8 41 -20
104 -26 140 -6 36 -15 74 -20 85 -5 11 -13 38 -18 60 -11 46 -35 131 -46 160
-6 17 -4 17 12 -3 10 -13 38 -74 61 -135z m-118 -1177 c-6 -11 -15 -18 -20
-15 -13 8 0 35 16 35 12 0 12 -4 4 -20z m-4046 -1569 c4 -5 -12 -12 -33 -16
-22 -4 -66 -24 -98 -45 -35 -23 -62 -35 -67 -29 -26 25 -97 -3 -106 -41 -5
-22 -12 -25 -50 -26 -76 -1 -168 -48 -156 -80 7 -17 -4 -23 -62 -34 -26 -5
-96 -20 -157 -34 -124 -28 -138 -26 -99 15 55 57 313 209 356 209 7 0 25 6 40
14 15 8 42 17 60 21 18 3 53 13 78 20 25 8 85 17 134 20 49 3 92 7 94 10 9 9
61 5 66 -4z m-119 -1148 c39 -8 81 -36 129 -87 103 -109 72 -185 -84 -211 -25
-4 -54 -9 -65 -11 -76 -15 -385 -26 -385 -14 0 27 43 90 95 140 32 30 67 64
78 75 57 55 163 125 182 120 11 -3 34 -8 50 -12z m-915 -537 c11 -11 20 -25
20 -32 0 -6 18 -20 41 -31 40 -19 40 -19 -60 -20 -86 0 -98 2 -82 13 12 9 21
31 25 64 7 54 8 54 56 6z m169 -221 c205 -2 375 -6 378 -9 8 -8 21 -93 33
-211 6 -55 12 -118 15 -140 2 -22 9 -107 15 -190 6 -82 13 -168 16 -190 6 -53
6 -484 0 -560 -11 -130 -18 -190 -26 -198 -11 -12 -184 -34 -249 -31 -31 1
-105 2 -166 1 -176 -3 -538 3 -564 9 -22 5 -23 9 -19 52 3 26 2 76 -1 111 -7
63 -7 63 35 81 43 19 59 45 68 115 2 17 7 38 11 48 16 38 -34 103 -100 131 -5
3 6 19 25 37 125 118 102 312 -40 335 -40 7 -40 7 -41 53 0 25 -2 57 -4 71 -6
51 -19 454 -16 494 1 4 58 5 129 2 70 -4 295 -9 501 -11z"/>
<path d="M1891 2298 c-9 -25 -8 -35 1 -44 23 -23 521 -44 588 -25 38 11 36 62
-3 72 -45 12 -304 29 -445 29 -130 0 -130 0 -141 -32z"/>
<path d="M1946 2067 c-39 -12 -51 -32 -36 -58 17 -26 545 -54 575 -29 41 34
-2 66 -106 80 -124 17 -389 22 -433 7z"/>
<path d="M1984 1809 c-47 -14 -56 -61 -14 -74 34 -11 521 -8 532 3 30 30 0 59
-69 66 -118 11 -417 15 -449 5z"/>
<path d="M2409 1574 c-166 -168 -229 -210 -229 -150 0 22 -69 86 -93 86 -36 0
-64 -35 -46 -57 8 -10 23 -35 33 -56 11 -21 30 -49 43 -63 13 -14 23 -32 23
-40 0 -20 67 -47 97 -39 36 9 296 276 314 322 11 29 5 56 -17 78 -23 23 -23
22 -125 -81z"/>
<path d="M8524 8529 c-129 -8 -293 -38 -384 -70 -30 -11 -69 -24 -87 -30 -40
-12 -216 -112 -268 -151 -97 -75 -254 -299 -255 -364 0 -12 -7 -41 -15 -64
-43 -121 -8 -346 81 -523 95 -188 357 -445 521 -509 89 -35 91 -39 70 -145
-21 -99 -101 -264 -169 -344 -50 -59 -49 -83 3 -109 142 -73 463 159 615 444
43 80 46 84 87 91 23 5 49 10 57 11 8 2 26 5 40 7 37 7 181 62 252 97 311 155
496 472 499 855 1 149 -39 321 -91 393 -15 21 -30 48 -34 59 -7 23 -131 154
-156 166 -8 4 -37 23 -64 42 -27 19 -60 38 -75 42 -14 3 -53 19 -86 34 -74 33
-351 86 -410 78 -5 -1 -65 -5 -131 -10z m236 -133 c19 -3 53 -7 75 -10 82 -11
249 -69 312 -109 72 -45 192 -176 223 -242 63 -133 79 -427 31 -567 -11 -31
-17 -58 -15 -60 7 -8 -57 -131 -101 -192 -40 -55 -66 -81 -160 -159 -40 -32
-177 -97 -207 -97 -13 0 -36 -9 -53 -20 -16 -11 -40 -20 -51 -20 -12 0 -41 -9
-65 -20 -24 -11 -54 -20 -66 -20 -46 0 -74 -24 -105 -84 -84 -167 -185 -300
-278 -363 -19 -13 -53 -37 -75 -53 -52 -38 -62 -38 -32 3 60 80 120 272 121
384 0 100 -7 110 -113 159 -248 114 -513 444 -551 684 -33 211 19 362 178 517
135 132 322 226 497 249 28 3 54 8 59 11 26 16 286 22 376 9z"/>
<path d="M8907 8034 c-1 -1 -49 -5 -107 -8 -58 -4 -134 -8 -170 -11 -36 -3
-130 -7 -210 -11 -80 -3 -172 -8 -205 -11 -33 -3 -99 -8 -147 -11 -113 -9
-157 -41 -121 -89 20 -28 20 -28 159 -27 77 1 186 4 244 8 285 18 419 27 459
31 24 2 89 7 145 11 56 4 109 11 119 16 25 13 23 74 -4 88 -17 10 -154 21
-162 14z"/>
<path d="M8475 7698 c-99 -6 -250 -18 -397 -33 -16 -1 -41 -3 -58 -4 -31 -1
-80 -42 -80 -66 0 -45 77 -53 325 -31 45 4 201 16 280 22 302 20 356 34 336
87 -16 40 -88 45 -406 25z"/>
<path d="M8945 7450 c-60 -5 -162 -13 -225 -19 -63 -6 -146 -13 -185 -16 -288
-24 -363 -39 -384 -78 -41 -77 17 -85 384 -48 55 5 141 13 190 16 50 3 99 8
110 10 11 2 78 11 149 20 148 18 166 25 166 64 0 55 -34 64 -205 51z"/>
<path d="M4214 6946 c-61 -43 -75 -304 -24 -468 21 -68 57 -121 76 -114 8 3
14 1 14 -4 0 -21 57 -10 81 16 47 50 33 249 -34 486 -27 94 -62 120 -113 84z"/>
<path d="M5583 5831 c-17 -16 -39 -41 -49 -56 -43 -65 -188 -153 -324 -196
-105 -33 -325 -33 -445 0 -137 38 -302 137 -327 196 -21 52 -71 62 -108 23
-51 -55 -30 -118 75 -223 85 -86 214 -147 358 -170 12 -2 36 -6 52 -10 117
-22 363 -13 416 15 9 5 31 12 50 15 113 20 301 160 360 267 50 93 52 99 35
135 -20 42 -50 43 -93 4z"/>
<path d="M5578 4769 c-76 -28 -60 -209 20 -209 74 0 103 158 37 206 -21 16
-21 16 -57 3z"/>
<path d="M4765 4614 c-11 -8 -21 -24 -21 -35 -1 -11 -9 -37 -19 -59 -32 -72
22 -99 86 -42 75 67 32 195 -46 136z"/>
<path d="M2361 3703 c-13 -2 -42 -24 -66 -48 -128 -133 -73 -377 85 -374 116
2 194 90 193 219 -1 145 -88 229 -212 203z"/>
<path d="M3759 3631 c-176 -111 -95 -445 101 -418 115 15 201 167 157 277 -27
68 -38 87 -64 112 -64 61 -127 71 -194 29z"/>
<path d="M7250 3030 c-231 -25 -311 -44 -424 -102 -309 -155 -437 -510 -295
-816 35 -76 35 -77 3 -149 -85 -190 -96 -230 -69 -253 32 -27 188 10 285 68
30 17 62 36 70 41 46 27 117 54 139 53 14 0 70 -4 125 -9 232 -20 430 17 583
109 469 281 367 975 -155 1048 -104 14 -191 17 -262 10z m290 -141 c203 -52
294 -179 295 -410 0 -125 0 -125 -37 -201 -73 -147 -215 -249 -397 -284 -70
-14 -137 -15 -464 -11 -51 1 -70 -6 -180 -61 -67 -34 -128 -62 -134 -62 -15 0
-18 26 -4 34 13 9 51 122 52 158 1 19 -14 66 -37 113 -114 238 12 552 268 669
62 28 203 66 298 79 61 8 269 -6 340 -24z"/>
<path d="M7476 2738 c-15 -24 -41 -147 -50 -233 -3 -27 -7 -68 -10 -90 -33
-241 -32 -255 23 -255 41 0 60 28 71 106 5 38 16 121 25 184 9 63 17 126 20
140 19 130 9 170 -45 170 -11 0 -26 -10 -34 -22z"/>
<path d="M7042 2697 c-14 -14 -22 -37 -22 -58 -1 -19 -7 -70 -15 -114 -40
-214 -28 -315 33 -300 42 10 50 25 61 115 34 268 37 342 17 363 -24 23 -48 21
-74 -6z"/>
<path d="M7282 2689 c-32 -12 -36 -29 -70 -278 -35 -266 -29 -308 44 -281 26
10 62 192 79 400 3 36 8 75 10 87 11 50 -21 87 -63 72z"/>
<path d="M6851 2577 c-59 -72 -60 -267 -1 -267 61 0 100 233 45 272 -15 12
-31 9 -44 -5z"/>
<path d="M7650 2554 c-38 -44 -40 -229 -3 -241 24 -8 61 42 71 95 19 105 -25
199 -68 146z"/>
<path d="M3702 1122 c-56 -6 -30 -26 49 -39 41 -6 127 -20 192 -32 277 -48
783 -94 851 -77 17 4 26 13 26 26 0 24 -4 26 -69 34 -30 4 -86 13 -125 20 -39
8 -127 17 -195 21 -69 3 -127 8 -131 10 -27 17 -510 47 -598 37z"/>
</g>
</svg>
