<?xml version="1.0" standalone="no"?>
<!DOCTYPE svg PUBLIC "-//W3C//DTD SVG 20010904//EN"
 "http://www.w3.org/TR/2001/REC-SVG-20010904/DTD/svg10.dtd">
<svg version="1.0" xmlns="http://www.w3.org/2000/svg"
 width="1024.000000pt" height="1024.000000pt" viewBox="0 0 1024.000000 1024.000000"
 preserveAspectRatio="xMidYMid meet">
<metadata>
Created by potrace 1.16, written by Peter Selinger 2001-2019
</metadata>
<g transform="translate(0.000000,1024.000000) scale(0.100000,-0.100000)"
fill="#ffffff" stroke="none">
<path d="M3905 9725 c-5 -2 -53 -13 -105 -25 -52 -12 -99 -25 -105 -29 -5 -4
-28 -13 -50 -20 -22 -7 -65 -29 -96 -47 -31 -19 -61 -34 -67 -34 -5 0 -15 -7
-23 -16 -7 -8 -29 -24 -49 -34 -20 -10 -50 -31 -67 -47 -16 -15 -61 -55 -99
-88 -103 -91 -194 -187 -228 -240 -10 -16 -44 -59 -76 -95 -31 -36 -83 -103
-114 -150 -31 -47 -64 -96 -73 -110 -23 -32 -113 -182 -113 -188 0 -2 -22 -41
-48 -86 -27 -44 -57 -99 -66 -121 -10 -22 -21 -49 -26 -60 -37 -83 -110 -267
-110 -278 0 -7 -4 -17 -9 -23 -27 -27 -81 -345 -81 -472 0 -48 0 -48 -70 -71
-113 -36 -307 -209 -326 -291 -4 -14 -13 -36 -21 -49 -38 -60 -26 -192 19
-207 28 -8 22 -22 -14 -29 -58 -12 -68 -16 -79 -37 -17 -32 -37 -187 -33 -263
1 -38 4 -108 4 -154 1 -47 6 -95 11 -108 4 -12 11 -46 14 -75 4 -29 11 -58 16
-64 6 -7 14 -34 18 -61 29 -161 90 -302 159 -369 23 -22 42 -46 42 -54 0 -7
10 -29 23 -49 12 -19 27 -44 32 -55 6 -10 37 -33 70 -51 33 -17 61 -38 63 -46
10 -55 179 -60 249 -6 18 13 26 5 96 -102 100 -151 214 -272 354 -374 36 -26
55 -49 64 -74 14 -42 65 -140 86 -164 23 -27 204 -146 256 -168 26 -11 73 -38
105 -59 69 -47 136 -82 157 -82 8 0 15 -4 15 -10 0 -5 3 -9 8 -8 4 0 14 -2 22
-5 67 -27 199 -60 235 -59 313 9 348 16 311 67 -11 16 -147 52 -216 58 -14 1
-31 6 -38 11 -7 4 -16 5 -19 2 -4 -3 -16 2 -27 13 -12 10 -49 26 -83 34 -78
19 -111 36 -71 37 15 0 39 -5 54 -11 16 -5 55 -12 89 -15 33 -3 80 -10 105
-15 213 -48 420 -47 435 2 14 42 -9 57 -102 64 -49 3 -125 11 -170 16 -45 5
-87 8 -94 7 -7 -2 -13 2 -14 7 -2 29 -24 45 -75 53 -211 36 -416 97 -491 147
-21 14 -42 25 -47 25 -5 0 -19 9 -32 20 -13 11 -31 20 -40 20 -9 0 -32 14 -50
30 -18 17 -38 30 -42 30 -5 0 -29 15 -52 33 -67 50 -84 60 -125 82 -137 71
-353 293 -364 375 -3 25 -12 74 -20 110 -33 146 -31 247 2 153 46 -129 249
-383 307 -383 24 0 69 32 84 61 11 20 -16 148 -44 204 -14 30 -39 122 -70 260
-21 95 -40 260 -32 281 4 10 -1 26 -12 38 -42 47 -66 461 -47 791 4 72 7 139
7 150 -1 11 3 22 9 26 17 10 36 112 27 144 -14 53 -72 80 -118 55 -32 -17 -69
-147 -71 -253 -1 -39 -4 -76 -7 -82 -3 -5 -6 -32 -7 -60 -5 -173 -4 -167 -25
-172 -29 -8 -34 -40 -27 -193 6 -146 42 -351 77 -440 11 -27 22 -69 25 -93 8
-65 24 -147 40 -207 17 -65 18 -70 6 -70 -9 0 -46 87 -55 132 -15 67 -25 98
-42 126 -16 28 -31 38 -87 56 -16 5 -17 15 -11 93 7 107 7 372 -2 588 -6 160
-6 160 30 304 20 80 40 149 45 155 5 6 24 47 42 91 115 275 367 595 579 734
30 20 65 45 78 56 26 22 62 38 62 28 0 -4 -17 -25 -39 -48 -53 -55 -147 -240
-162 -318 -21 -107 -31 -122 -92 -141 -159 -50 -220 -288 -113 -444 59 -85 78
-92 146 -55 3 2 19 -30 34 -72 36 -91 63 -120 117 -120 70 0 96 38 82 122 -7
38 -10 79 -7 93 3 14 -2 49 -10 79 -9 36 -11 64 -5 84 5 16 9 71 10 121 2 80
18 183 47 296 14 52 38 107 70 153 15 23 31 50 35 60 3 9 10 17 14 17 12 0 43
-59 43 -81 0 -11 11 -37 25 -57 14 -20 25 -43 25 -50 0 -17 69 -125 86 -135 8
-4 14 -14 14 -22 0 -20 54 -61 97 -75 21 -7 45 -18 53 -25 32 -26 50 -25 82 5
17 17 37 30 45 30 29 0 6 153 -46 295 -34 94 -57 185 -47 185 6 1 56 3 111 5
409 18 464 9 509 -86 15 -32 31 -61 36 -64 5 -3 12 -20 15 -37 4 -18 16 -48
26 -68 24 -48 70 -152 74 -170 2 -8 27 -80 55 -159 28 -80 59 -192 69 -249 15
-85 24 -109 45 -131 35 -35 94 -36 131 -1 27 26 28 33 12 120 -3 14 -10 53
-16 88 -12 64 -72 230 -122 337 -15 33 -34 78 -42 100 -35 94 -71 173 -99 214
-36 55 -81 142 -75 147 19 19 156 -179 218 -316 38 -83 151 -297 180 -340 5
-8 21 -37 35 -65 14 -27 48 -90 75 -140 135 -249 150 -285 125 -295 -86 -32
-125 -209 -96 -435 17 -126 43 -165 114 -165 87 0 112 129 77 408 -4 35 -4 65
1 68 4 3 8 0 8 -5 0 -6 18 -22 39 -37 80 -52 109 29 52 147 -12 23 -21 47 -21
51 0 12 -62 147 -111 243 -23 44 -53 103 -66 130 -13 28 -28 57 -33 65 -61
100 -80 133 -112 193 -21 38 -38 74 -38 79 0 5 -20 44 -44 86 -24 42 -50 96
-57 120 -7 23 -15 42 -19 42 -7 0 -31 46 -36 66 -1 6 -5 22 -9 35 -5 19 1 15
32 -18 96 -107 279 -318 355 -412 15 -18 119 -160 138 -188 8 -12 47 -64 85
-115 71 -93 77 -104 113 -188 57 -133 164 -128 148 7 -9 67 -77 277 -106 325
-11 18 -20 43 -20 56 0 12 -4 30 -10 40 -22 39 -91 255 -86 269 3 8 -4 27 -16
43 -12 17 -18 33 -14 37 10 10 85 -74 103 -116 8 -18 25 -51 39 -72 13 -21 54
-96 90 -166 36 -71 69 -132 75 -137 5 -6 9 -18 9 -27 0 -15 15 -51 100 -234
25 -53 46 -121 105 -329 10 -38 27 -68 46 -85 27 -25 29 -29 18 -62 -15 -44
-29 -59 -29 -31 0 19 -4 21 -27 16 -37 -9 -45 -22 -39 -61 3 -18 0 -36 -6 -39
-7 -4 -8 -30 -4 -73 4 -36 9 -84 11 -106 5 -64 6 -235 1 -243 -3 -5 -7 -69
-11 -143 -3 -74 -10 -166 -16 -206 -23 -145 14 -216 100 -193 53 14 57 21 81
145 32 164 38 215 45 385 8 188 25 244 30 103 6 -135 27 -195 65 -186 89 21
94 30 87 161 -7 130 -31 239 -88 400 -12 34 -26 62 -30 62 -5 0 -9 7 -9 15 0
20 -60 57 -74 46 -15 -11 -56 -21 -56 -13 0 4 13 14 29 23 44 25 47 61 15 191
-15 62 -38 139 -50 172 -13 32 -21 63 -17 68 3 6 2 13 -3 17 -16 11 -42 65
-54 111 -14 57 -170 374 -226 460 -109 169 -331 457 -367 477 -94 53 -161 -50
-82 -127 39 -38 45 -55 15 -47 -63 16 -46 -109 45 -345 13 -32 -14 -19 -40 20
-14 20 -46 62 -71 92 -25 30 -60 73 -77 95 -18 22 -57 69 -87 106 -30 36 -84
103 -119 148 -98 125 -202 188 -251 151 -24 -18 -25 -32 -4 -130 8 -41 15 -45
-136 98 -90 86 -181 158 -212 168 -31 10 -14 29 33 36 62 10 323 8 389 -2 30
-5 91 -14 135 -20 115 -17 341 -75 421 -109 38 -15 94 -39 124 -52 30 -12 79
-38 108 -56 29 -18 56 -33 61 -33 9 0 65 -37 166 -109 62 -45 226 -209 275
-276 24 -33 62 -82 85 -110 40 -50 115 -167 115 -180 0 -4 11 -16 25 -27 14
-11 25 -25 25 -31 1 -7 9 -30 20 -52 11 -22 19 -47 20 -55 0 -9 7 -26 16 -38
8 -12 12 -22 8 -22 -4 0 0 -8 8 -17 25 -28 31 -60 13 -67 -20 -7 -20 -76 0
-151 23 -90 54 -368 59 -530 6 -183 -8 -288 -68 -518 -31 -118 -29 -114 -72
-132 -19 -8 -34 -18 -35 -22 -18 -179 -155 -380 -416 -612 -125 -111 -425
-292 -574 -346 -146 -53 -344 -115 -407 -126 -71 -13 -110 -40 -86 -58 5 -3
17 -23 27 -45 15 -32 21 -37 40 -32 12 4 56 14 97 22 134 27 282 64 311 79 38
20 37 21 32 -27 -4 -36 4 -105 21 -193 12 -63 31 -124 47 -151 11 -17 30 -65
43 -105 23 -69 55 -144 76 -179 5 -8 16 -42 26 -75 32 -118 52 -169 73 -191
27 -28 22 -29 -94 -39 -314 -27 -451 -166 -510 -520 -7 -44 -18 -102 -25 -130
-31 -137 -47 -218 -71 -369 -11 -72 -22 -133 -25 -138 -3 -4 -11 -45 -19 -90
-18 -99 -31 -128 -60 -128 -25 0 -57 -27 -100 -85 -39 -54 -185 -224 -260
-305 -33 -36 -78 -86 -100 -110 -22 -25 -72 -72 -110 -105 -84 -74 -197 -189
-209 -215 -19 -42 27 -76 82 -61 37 11 110 66 192 147 36 35 79 74 96 86 40
30 106 99 166 174 26 32 75 88 108 124 40 42 77 96 106 155 36 71 44 83 41 55
-7 -52 -36 -218 -47 -270 -21 -96 -40 -196 -44 -225 -14 -122 -30 -175 -53
-175 -13 0 -23 -4 -23 -9 0 -4 -33 -30 -72 -57 -40 -27 -102 -70 -138 -96 -93
-66 -320 -188 -351 -188 -4 0 -17 -12 -28 -26 -23 -29 -28 -68 -8 -61 6 2 20
0 29 -5 31 -15 192 18 290 60 111 49 243 158 297 247 11 18 11 16 7 -15 -28
-188 -37 -242 -50 -278 -9 -24 -15 -46 -14 -50 1 -4 -1 -14 -5 -22 -3 -8 -10
-49 -17 -90 -6 -41 -15 -95 -19 -120 -37 -201 -37 -211 11 -236 43 -22 73 15
83 101 3 33 11 78 17 100 5 22 12 49 14 60 2 11 13 70 25 130 12 61 25 137 30
170 5 33 13 80 19 105 15 66 20 90 26 135 3 22 8 47 11 55 3 8 13 65 23 125
10 61 33 191 53 290 33 170 67 372 69 405 0 8 11 67 24 130 13 63 31 153 39
200 9 47 20 105 25 130 5 25 21 108 35 185 14 77 28 149 31 160 3 11 11 43 18
70 8 28 16 71 19 97 14 109 70 232 128 282 38 32 180 91 205 85 5 -2 65 1 134
4 69 4 238 10 375 12 246 5 498 10 930 20 121 3 335 7 475 10 428 7 593 15
815 42 109 13 404 5 476 -12 128 -31 160 -67 162 -177 2 -70 -9 -174 -20 -191
-3 -5 -6 -25 -8 -45 -2 -20 -8 -57 -15 -82 -6 -25 -22 -101 -34 -170 -12 -69
-28 -141 -34 -160 -6 -19 -16 -62 -22 -95 -15 -77 -47 -224 -65 -295 -8 -30
-16 -71 -19 -90 -3 -19 -17 -87 -31 -150 -34 -148 -70 -320 -94 -440 -80 -403
-99 -483 -148 -640 -9 -30 -16 -58 -15 -61 0 -4 -3 -22 -9 -40 -6 -19 -12 -43
-14 -54 -1 -11 -15 -51 -29 -90 -14 -38 -26 -77 -26 -85 0 -41 -28 -43 -445
-46 -220 -1 -431 -5 -470 -8 -38 -4 -149 -14 -245 -22 -246 -22 -247 -22 -325
-28 -38 -3 -86 -8 -106 -11 -20 -3 -117 -7 -215 -10 -98 -3 -208 -10 -244 -15
-36 -5 -146 -14 -245 -20 -285 -17 -337 -20 -359 -25 -12 -2 -55 -7 -96 -9
-258 -18 -495 -42 -511 -52 -4 -2 -20 -6 -36 -8 -61 -9 -179 -24 -193 -24 -8
-1 -51 -6 -95 -12 -87 -12 -372 -5 -465 11 -30 5 -82 11 -115 14 -97 8 -246
25 -300 36 -27 5 -113 16 -190 24 -170 18 -322 41 -377 56 -23 6 -51 12 -62
13 -36 5 -170 49 -201 66 -63 35 -42 67 60 86 33 7 78 17 100 22 48 13 115 20
255 28 58 3 132 10 165 15 33 5 69 10 80 11 11 0 70 4 130 9 61 4 186 10 279
14 93 3 173 8 177 10 4 3 75 7 158 10 184 7 206 13 197 56 -3 18 -6 38 -6 45
0 29 -57 46 -123 36 -35 -6 -69 -6 -78 -1 -9 4 -19 5 -23 2 -7 -7 -25 -9 -151
-18 -49 -3 -111 -7 -137 -10 -43 -4 -48 -2 -48 16 0 11 7 22 15 25 9 4 13 14
10 28 -2 11 -7 53 -10 91 -3 48 -10 74 -21 82 -13 10 -15 22 -9 68 6 53 -4
130 -36 265 -6 25 -13 59 -16 75 -18 110 -114 341 -168 405 -7 8 -27 43 -44
77 -17 34 -40 71 -52 82 -21 19 -21 19 27 52 63 41 193 213 241 317 9 20 21
43 27 51 12 16 36 78 40 106 1 11 7 29 13 40 17 32 55 221 57 283 3 78 -16
367 -24 367 -1 0 -4 14 -6 30 -43 283 -228 562 -463 700 -33 20 -63 40 -66 45
-7 12 -64 40 -81 40 -8 0 -37 11 -66 24 -61 27 -129 46 -210 56 -31 4 -61 11
-66 14 -6 4 -44 9 -84 11 -40 3 -105 10 -144 16 -84 12 -112 11 -304 -7 -132
-13 -265 -32 -330 -48 -14 -3 -38 -9 -55 -12 -63 -14 -251 -95 -324 -141 -140
-88 -321 -272 -364 -373 -6 -14 -21 -41 -33 -60 -11 -19 -33 -73 -48 -120 -15
-47 -34 -98 -42 -113 -8 -16 -14 -41 -14 -55 0 -15 -5 -43 -11 -62 -33 -105
-22 -385 23 -595 29 -138 28 -258 -3 -350 -29 -85 -22 -83 -240 -78 -200 4
-192 9 -192 -115 -1 -261 4 -401 13 -407 16 -10 12 -28 -5 -21 -9 3 -18 -1
-21 -9 -4 -8 -10 -15 -15 -15 -12 0 -40 -27 -62 -60 -9 -14 -30 -45 -48 -69
-112 -159 -147 -412 -81 -591 42 -116 132 -198 251 -230 43 -11 51 -32 51
-136 0 -135 21 -180 85 -189 140 -20 714 -27 905 -11 52 5 131 8 175 7 111 -1
139 20 141 106 1 32 9 137 19 233 18 188 16 568 -5 775 -6 55 -13 136 -16 180
-3 44 -9 103 -14 130 -5 28 -12 91 -16 140 -19 229 -29 253 -117 279 -41 12
-74 13 -153 7 -152 -12 -171 -7 -261 68 -189 155 -263 331 -266 626 -2 183 11
222 146 435 82 129 357 244 357 150 0 -11 5 -22 10 -25 6 -3 10 -14 10 -24 0
-10 7 -24 15 -31 8 -7 15 -21 15 -31 0 -24 36 -89 61 -111 10 -9 19 -21 19
-26 0 -6 18 -33 40 -61 23 -28 38 -56 35 -61 -4 -6 1 -13 9 -16 9 -3 16 -11
16 -18 0 -6 14 -24 30 -39 49 -46 56 -34 -134 -230 -57 -59 -112 -122 -121
-140 -8 -18 -25 -47 -36 -66 -49 -82 -41 -185 17 -221 30 -18 221 -41 294 -36
221 18 302 30 348 55 11 6 27 11 35 11 34 0 126 73 150 119 64 124 37 192
-145 372 -98 97 -98 97 -63 128 20 17 40 31 45 31 6 0 10 4 10 9 0 6 32 44 72
86 40 42 91 104 114 138 23 34 57 76 75 93 19 16 46 44 60 62 18 21 29 28 37
20 7 -7 16 -6 30 1 41 22 92 14 92 -15 0 -43 61 -62 115 -35 47 23 91 26 148
10 39 -10 173 -132 210 -191 32 -50 53 -93 72 -143 10 -27 34 -79 53 -115 58
-107 53 -312 -11 -437 -19 -37 -47 -93 -62 -123 -34 -71 -127 -197 -173 -235
-63 -52 -152 -149 -152 -166 0 -35 23 -40 116 -24 99 17 88 23 135 -68 49 -96
68 -152 73 -224 9 -123 -11 -114 -83 39 -58 122 -206 187 -256 112 -26 -40 14
-190 76 -287 51 -78 62 -161 47 -342 -5 -60 -11 -144 -13 -185 -7 -110 -26
-208 -44 -224 -15 -12 -177 -41 -296 -53 -27 -2 -57 -7 -65 -10 -8 -3 -22 -7
-31 -9 -33 -7 -145 -62 -158 -78 -28 -34 -32 -102 -9 -143 47 -82 126 -142
188 -143 15 0 30 -4 36 -10 5 -5 33 -12 61 -15 28 -2 90 -16 138 -30 48 -14
97 -25 109 -25 11 0 57 -6 101 -14 82 -15 198 -31 340 -46 44 -5 121 -14 170
-20 50 -6 108 -13 130 -14 22 -2 78 -9 125 -16 62 -9 174 -11 415 -6 332 7
355 8 410 19 17 3 84 9 150 12 66 3 140 7 165 10 76 8 163 16 215 20 259 21
315 26 345 30 19 2 103 7 185 11 83 3 153 8 157 10 4 3 54 7 111 9 100 4 382
27 577 47 202 20 272 25 490 37 586 30 818 57 879 100 29 21 71 93 71 121 0
11 4 21 9 24 5 3 11 16 14 28 3 13 19 56 36 97 17 40 40 106 50 145 11 39 27
96 36 126 9 30 19 70 21 88 3 18 11 59 19 90 8 31 15 64 15 74 0 11 13 76 30
146 16 70 38 168 49 217 48 219 71 327 91 425 12 58 28 123 35 145 7 22 13 49
13 60 0 20 6 53 41 220 10 50 26 126 35 170 9 44 23 112 31 150 68 335 80 509
39 592 -88 182 -315 221 -1094 191 -337 -13 -504 -20 -558 -23 -29 -2 -162 -6
-295 -9 -133 -4 -350 -11 -482 -16 -132 -6 -348 -12 -479 -15 -132 -3 -254 -7
-271 -11 -41 -7 -52 9 -25 36 12 12 19 29 16 38 -2 9 -8 37 -11 62 -4 25 -11
50 -15 55 -9 13 -35 96 -50 165 -7 30 -16 60 -21 66 -15 19 -69 158 -69 179
-1 28 -24 55 -48 55 -25 0 -72 53 -73 83 0 12 -2 31 -5 42 -11 57 -16 139 -10
177 7 48 31 67 146 118 30 13 91 47 135 75 44 29 87 55 95 59 152 70 444 388
582 634 31 54 31 54 81 49 32 -4 56 -2 70 7 13 8 52 14 92 14 80 1 142 26 214
86 23 20 46 36 49 36 8 0 62 52 93 90 48 57 71 102 125 250 122 333 69 820
-136 1245 -61 127 -263 345 -320 345 -6 0 -22 8 -36 17 -26 16 -58 13 -115
-11 -12 -5 -22 8 -43 61 -15 37 -33 77 -39 88 -6 11 -27 54 -48 95 -20 42 -44
82 -53 89 -9 7 -14 17 -11 21 3 4 -2 13 -10 20 -8 7 -15 19 -15 26 0 8 -4 14
-10 14 -5 0 -10 6 -10 13 0 6 -18 39 -40 72 -23 33 -47 74 -54 91 -14 32 -43
72 -149 209 -122 157 -343 390 -442 467 -27 21 -75 58 -105 83 -91 74 -102 81
-246 163 -139 79 -289 154 -374 187 -25 10 -54 21 -65 25 -11 4 -58 20 -105
35 -47 16 -130 43 -184 62 -55 18 -108 33 -117 33 -10 0 -30 5 -46 11 -15 6
-39 13 -53 14 -14 2 -54 8 -90 14 -57 9 -449 15 -475 6z m450 -180 c33 -7 82
-16 108 -19 25 -3 69 -15 97 -26 28 -11 56 -18 61 -14 6 3 16 1 23 -5 6 -6 37
-17 68 -25 31 -8 69 -21 86 -30 17 -9 48 -18 70 -21 22 -2 53 -10 69 -16 15
-6 39 -16 53 -21 14 -6 36 -16 50 -23 14 -8 66 -35 115 -61 202 -105 288 -157
328 -196 16 -15 34 -28 40 -28 24 -1 350 -289 361 -320 3 -8 40 -51 81 -95
124 -131 255 -313 346 -482 23 -43 50 -92 60 -110 10 -18 16 -33 14 -33 -3 0
15 -41 41 -91 67 -135 51 -129 -75 28 -32 40 -78 89 -102 109 -24 20 -45 40
-47 45 -4 10 -195 159 -230 179 -15 8 -56 33 -92 55 -238 148 -669 285 -978
311 -82 7 -297 7 -367 1 -33 -4 -96 -9 -140 -12 -168 -12 -518 -91 -668 -151
-97 -38 -331 -156 -358 -180 -8 -8 -22 -14 -29 -14 -37 0 -123 -67 -288 -225
-113 -108 -181 -190 -287 -347 -58 -86 -175 -321 -206 -413 -13 -38 -25 -62
-27 -52 -2 9 -7 17 -12 17 -4 0 -10 11 -14 23 -3 13 -19 41 -36 62 -22 28 -27
41 -19 51 6 8 9 47 6 101 -2 48 0 102 4 118 4 17 10 55 13 85 2 30 16 89 29
130 14 41 37 116 51 165 15 50 36 108 46 130 11 22 38 83 61 135 23 52 65 131
94 175 29 44 60 96 70 115 10 19 33 57 53 83 19 27 44 66 56 88 66 124 164
251 351 457 191 209 408 319 700 352 55 7 102 14 105 17 9 9 200 -7 265 -22z
m-54 -1077 c16 -30 112 -175 140 -212 23 -29 23 -29 -12 -23 -152 27 -482 1
-571 -44 -36 -19 -49 -67 -28 -102 30 -48 24 -53 -15 -11 -19 20 -35 44 -35
54 0 9 -9 25 -20 35 -11 10 -20 22 -20 28 0 13 -72 76 -87 77 -30 0 -5 44 32
57 21 7 61 24 90 37 77 37 154 66 200 76 22 5 78 18 125 28 124 28 186 28 201
0z m2808 -1241 c92 -240 115 -577 59 -874 -5 -29 -14 -53 -20 -53 -6 0 -8 11
-4 28 29 134 29 440 1 582 -8 41 -21 109 -29 150 -12 63 -41 172 -81 300 -21
69 35 -34 74 -133z m-119 -1211 c0 -2 -3 -11 -6 -20 -9 -23 -24 -20 -24 4 0
11 7 20 15 20 8 0 15 -2 15 -4z m-4210 -1651 c0 -2 -24 -11 -52 -20 -29 -8
-75 -30 -103 -49 -40 -27 -52 -32 -67 -23 -29 19 -104 -12 -100 -40 3 -25 -5
-28 -97 -37 -60 -6 -121 -44 -121 -77 0 -21 -40 -42 -74 -37 -12 1 -30 -3 -42
-10 -12 -6 -48 -16 -80 -21 -32 -6 -78 -15 -101 -19 -62 -13 -70 -1 -25 40
159 144 459 268 692 287 124 10 170 12 170 6z m-147 -1190 c121 -37 235 -167
208 -238 -22 -57 -110 -83 -351 -101 -221 -17 -266 -17 -262 4 12 53 34 80
176 214 35 33 168 136 176 136 3 0 27 -7 53 -15z m-913 -604 c0 -5 18 -17 40
-28 41 -19 41 -19 -65 -19 -89 -1 -102 1 -86 12 13 9 21 32 26 70 7 56 7 56
46 16 21 -23 39 -45 39 -51z m55 -187 c264 -3 484 -10 489 -15 15 -14 49 -306
71 -624 3 -49 8 -108 11 -130 3 -22 5 -150 5 -285 1 -212 -3 -302 -17 -420 -1
-14 -3 -39 -3 -56 -1 -25 -7 -34 -28 -42 -42 -16 -255 -34 -284 -25 -13 5 -87
6 -164 2 -137 -7 -509 -3 -552 6 -20 5 -21 11 -22 110 0 58 -3 110 -6 115 -3
5 14 19 39 31 47 22 57 39 72 124 4 22 10 46 14 54 11 21 -37 100 -65 107 -47
12 -49 29 -7 71 119 118 92 317 -46 339 -42 7 -42 7 -43 53 -1 25 -3 55 -5 66
-3 25 -12 218 -18 391 -5 147 -5 148 44 140 19 -3 251 -8 515 -12z"/>
<path d="M1453 2144 c-7 -3 -13 -14 -13 -24 0 -10 -5 -22 -11 -25 -7 -5 -5
-13 6 -25 18 -20 84 -27 370 -36 229 -7 270 -1 270 41 0 27 -4 31 -47 42 -77
19 -546 41 -575 27z"/>
<path d="M1525 1883 c-73 -15 -102 -58 -56 -82 22 -12 412 -34 515 -29 81 4
105 23 71 57 -33 33 -437 74 -530 54z"/>
<path d="M1520 1598 c-31 -17 -36 -40 -15 -62 17 -17 132 -22 420 -17 147 2
157 5 153 39 -4 38 -31 42 -298 48 -186 4 -240 3 -260 -8z"/>
<path d="M1966 1351 c-58 -61 -127 -127 -152 -148 -46 -37 -46 -37 -78 2 -71
91 -109 108 -140 63 -14 -19 -14 -24 -1 -38 8 -9 15 -21 15 -25 0 -5 23 -44
52 -87 87 -131 131 -128 260 14 31 35 88 96 127 137 86 90 100 148 47 183 -18
13 -19 12 -130 -101z"/>
<path d="M8280 8600 c-198 -20 -401 -79 -550 -160 -285 -157 -435 -369 -455
-643 -12 -148 73 -450 148 -529 7 -7 24 -31 38 -53 30 -45 224 -244 282 -290
63 -49 159 -105 202 -117 48 -15 63 -27 59 -48 -2 -8 -10 -53 -19 -100 -19
-99 -94 -253 -169 -344 -56 -70 -57 -85 -5 -114 46 -27 146 -18 199 17 14 9
50 30 80 45 140 73 274 217 368 396 46 89 53 94 137 106 67 9 83 13 162 43
294 109 474 273 597 543 104 227 98 649 -11 813 -15 22 -34 55 -43 73 -16 33
-146 172 -161 172 -4 0 -26 15 -48 34 -23 19 -58 40 -79 46 -20 7 -59 22 -87
35 -147 67 -408 98 -645 75z m315 -134 c28 -4 64 -9 81 -11 52 -6 245 -74 300
-106 56 -32 196 -169 232 -227 79 -130 102 -460 43 -627 -10 -29 -17 -56 -14
-59 8 -8 -47 -116 -97 -191 -82 -122 -243 -238 -374 -272 -33 -8 -68 -21 -77
-29 -8 -8 -25 -14 -37 -14 -13 0 -50 -11 -84 -25 -35 -14 -68 -23 -74 -21 -28
11 -75 -35 -105 -101 -63 -138 -198 -309 -294 -373 -16 -11 -45 -31 -64 -45
-44 -33 -57 -32 -33 3 61 88 124 288 125 399 1 100 -5 109 -118 165 -203 102
-450 361 -525 553 -13 33 -27 65 -31 70 -26 38 -36 316 -12 347 5 7 15 33 23
58 32 106 162 254 302 343 67 44 198 107 220 107 9 0 34 7 57 14 22 8 67 18
98 22 32 3 63 9 68 12 26 16 291 21 390 8z"/>
<path d="M8739 8086 c-2 -2 -62 -7 -134 -10 -71 -4 -150 -9 -175 -11 -25 -1
-117 -6 -205 -10 -159 -7 -186 -8 -362 -23 -82 -6 -96 -10 -120 -34 -27 -28
-27 -28 -6 -55 20 -28 20 -28 169 -27 157 0 341 9 539 24 66 5 192 14 280 20
193 14 205 18 205 64 0 18 -6 39 -14 45 -13 11 -168 25 -177 17z"/>
<path d="M8210 7734 c-113 -7 -235 -17 -272 -23 -37 -6 -85 -11 -108 -11 -40
0 -100 -41 -100 -68 0 -19 42 -45 73 -45 87 0 206 6 342 19 83 7 220 18 305
24 225 16 280 33 265 79 -14 46 -88 49 -505 25z"/>
<path d="M8725 7475 c-605 -47 -731 -63 -762 -100 -72 -82 20 -107 282 -75 44
5 107 12 140 15 189 16 383 35 405 40 14 3 57 8 95 11 78 7 105 24 105 64 0
58 -31 63 -265 45z"/>
<path d="M3854 6952 c-64 -52 -76 -309 -24 -493 12 -44 67 -122 80 -114 5 3
11 1 15 -5 20 -32 82 5 104 62 14 37 5 234 -13 285 -8 22 -13 43 -10 45 2 3
-8 43 -22 89 -14 46 -27 92 -29 103 -10 43 -64 58 -101 28z"/>
<path d="M5245 5754 c-103 -113 -205 -178 -355 -225 -103 -33 -358 -32 -459 0
-35 12 -71 21 -80 21 -44 0 -244 141 -262 185 -31 75 -111 59 -143 -29 -19
-53 116 -217 217 -264 145 -67 166 -75 287 -98 239 -46 447 -19 649 83 88 45
233 180 245 228 4 17 15 38 24 48 19 22 21 79 3 101 -28 33 -63 19 -126 -50z"/>
<path d="M5274 4686 c-48 -21 -67 -72 -50 -131 25 -82 68 -106 117 -66 37 30
36 163 -1 191 -30 23 -27 23 -66 6z"/>
<path d="M4422 4519 c-12 -11 -20 -24 -17 -29 3 -5 -4 -29 -16 -54 -33 -71 -7
-103 57 -73 64 31 96 124 56 160 -25 23 -54 21 -80 -4z"/>
<path d="M1902 3564 c-74 -38 -130 -155 -118 -248 22 -168 144 -229 279 -140
100 66 111 279 18 368 -37 36 -128 46 -179 20z"/>
<path d="M3378 3500 c-172 -108 -105 -427 91 -433 120 -4 221 152 181 280 -49
159 -162 222 -272 153z"/>
<path d="M6875 2859 c-320 -54 -500 -176 -617 -420 -77 -160 -72 -350 14 -537
32 -68 31 -75 -10 -157 -40 -79 -82 -188 -82 -211 0 -75 202 -44 341 52 86 60
193 99 223 82 40 -22 366 -10 492 18 427 96 644 531 453 907 -53 103 -108 155
-224 211 -151 73 -364 93 -590 55z m420 -125 c229 -46 348 -217 332 -473 -13
-187 -120 -332 -310 -422 -121 -56 -191 -62 -623 -56 -56 1 -73 -4 -180 -58
-149 -74 -164 -79 -164 -55 0 10 4 21 9 24 14 9 51 122 53 160 1 20 -6 51 -15
68 -53 109 -60 135 -65 229 -7 151 41 281 147 392 114 121 232 172 481 210 49
7 266 -5 335 -19z"/>
<path d="M7246 2568 c-16 -26 -36 -139 -66 -378 -25 -195 -21 -220 34 -220 51
0 60 23 90 240 15 107 31 222 36 256 13 79 13 77 -10 102 -27 29 -66 28 -84 0z"/>
<path d="M6796 2528 c-16 -25 -42 -177 -61 -360 -9 -92 13 -143 59 -134 47 10
54 23 65 126 6 52 13 111 16 130 14 117 17 218 6 238 -16 30 -65 30 -85 0z"/>
<path d="M7044 2520 c-31 -12 -34 -23 -68 -280 -34 -250 -34 -285 -5 -301 53
-28 78 5 98 131 57 358 50 478 -25 450z"/>
<path d="M6601 2407 c-22 -27 -39 -84 -45 -153 -11 -114 21 -162 72 -111 54
55 59 251 7 271 -22 8 -21 8 -34 -7z"/>
<path d="M7435 2380 c-29 -32 -47 -149 -32 -202 24 -83 82 -54 97 49 16 111
-22 200 -65 153z"/>
<path d="M3295 879 c-11 -17 -1 -21 87 -35 46 -7 121 -20 168 -29 350 -62 902
-104 930 -70 23 27 4 43 -62 50 -35 4 -94 13 -133 21 -38 7 -124 16 -190 19
-66 3 -160 12 -210 20 -190 30 -577 46 -590 24z"/>
</g>
</svg>
