<svg xmlns="http://www.w3.org/2000/svg" viewBox="0 0 16 16" fill="none" stroke="#ffffff" stroke-width="1.6" stroke-linecap="round" stroke-linejoin="round"><path d="M14.82 6.43L14.82 9.57L13.16 9.19L12.49 10.81L13.94 11.71L11.71 13.94L10.81 12.49L9.19 13.16L9.57 14.82L6.43 14.82L6.81 13.16L5.19 12.49L4.29 13.94L2.06 11.71L3.51 10.81L2.84 9.19L1.18 9.57L1.18 6.43L2.84 6.81L3.51 5.19L2.06 4.29L4.29 2.06L5.19 3.51L6.81 2.84L6.43 1.18L9.57 1.18L9.19 2.84L10.81 3.51L11.71 2.06L13.94 4.29L12.49 5.19L13.16 6.81Z"></path><circle cx="8" cy="8" r="2.1"></circle></svg>